<svg xmlns="http://www.w3.org/2000/svg" viewBox="0 0 500 500"><g id="freepik--Floor--inject-21"><path id="freepik--floor--inject-21" d="M77.66,241.64c-95.18,55-95.17,144.05,0,199s249.49,54.95,344.67,0,95.17-144,0-199S172.84,186.69,77.66,241.64Z" style="fill:#fafafa"></path></g><g id="freepik--Shadows--inject-21"><path id="freepik--Shadow--inject-21" d="M172.26,465.65a13.24,13.24,0,0,1-6.51-1.6l-4.9-2.83c-2.18-1.26-3.43-3.12-3.43-5.1s1.25-3.84,3.43-5.1l64.59-37.39c-5.76-6.39-8.31-13.58-7.41-20.95,1.14-9.38,8-18.15,19.34-24.69,12.26-7.08,28.52-11,45.79-11s33.52,3.9,45.79,11c12.58,7.27,19.51,17,19.51,27.52S341.53,415.77,329,423c-12.26,7.08-28.52,11-45.78,11h0c-16.63,0-32.35-3.63-44.44-10.23l-59.15,39.87A13.5,13.5,0,0,1,172.26,465.65Z" style="fill:#e0e0e0"></path><path id="freepik--shadow--inject-21" d="M370.94,337.58c-23.51,13.72-23.51,36,0,49.69s61.61,13.73,85.11,0,23.51-36,0-49.69S394.44,323.85,370.94,337.58Z" style="fill:#e0e0e0"></path></g><g id="freepik--Kanban--inject-21"><g id="freepik--kanban--inject-21"><g style="opacity:0.2"><path d="M189.23,249.6,312,178.72c.79-.46,1.43-.09,1.43.82V290.7a3.14,3.14,0,0,1-1.43,2.47L189.23,364.06c-.79.45-1.43.08-1.43-.83V252.07A3.14,3.14,0,0,1,189.23,249.6Z"></path></g><g id="freepik--Box--inject-21"><path d="M310,185.26,193.15,252.7a3.48,3.48,0,0,0-1.58,2.73V363.82a3.43,3.43,0,0,0,1.58,2.71l3,1.7a3.52,3.52,0,0,0,3.16,0l116.85-67.44a3.46,3.46,0,0,0,1.57-2.72V189.66a3.44,3.44,0,0,0-1.58-2.71l-3-1.7A3.55,3.55,0,0,0,310,185.26Z" style="fill:#455a64"></path><path d="M199.31,368.22a3.65,3.65,0,0,1-3.16,0l-3-1.71a3.41,3.41,0,0,1-1.59-2.71V255.43a3.29,3.29,0,0,1,.5-1.61l6.13,3.55a3.09,3.09,0,0,0-.46,1.54v108.4C197.74,368.23,198.38,368.76,199.31,368.22Z" style="fill:#263238"></path><path d="M316.16,188.75,199.31,256.19a3.46,3.46,0,0,0-1.57,2.72v108.4c0,1,.7,1.41,1.57.91l116.85-67.44a3.46,3.46,0,0,0,1.57-2.72V189.66C317.73,188.66,317,188.25,316.16,188.75Z" style="fill:#fff"></path><path d="M316.47,190v108a2.23,2.23,0,0,1-.94,1.63L199,367v-108a2.23,2.23,0,0,1,.94-1.63L316.47,190m.39-1.48a1.47,1.47,0,0,0-.7.21L199.31,256.19a3.46,3.46,0,0,0-1.57,2.72v108.4c0,.71.35,1.12.87,1.12a1.47,1.47,0,0,0,.7-.21l116.85-67.44a3.46,3.46,0,0,0,1.57-2.72V189.66c0-.71-.35-1.12-.87-1.12Z" style="fill:#e0e0e0"></path></g><g id="freepik--kanban--inject-21"><polygon points="209.14 282.48 209.14 261.46 227.88 250.65 227.88 271.66 209.14 282.48" style="fill:#BA68C8"></polygon><polygon points="209.14 282.48 209.14 261.46 227.88 250.65 227.88 271.66 209.14 282.48" style="fill:#fff;opacity:0.30000000000000004"></polygon><polygon points="209.14 282.48 209.14 261.46 207 260.23 207 281.24 209.14 282.48" style="fill:#263238"></polygon><polygon points="227.88 250.65 225.74 249.41 207 260.23 209.14 261.46 227.88 250.65" style="fill:#455a64"></polygon><polygon points="236 266.97 236 245.96 254.75 235.14 254.74 256.15 236 266.97" style="fill:#BA68C8"></polygon><g style="opacity:0.6000000000000001"><polygon points="236 266.97 236 245.96 254.75 235.14 254.74 256.15 236 266.97" style="fill:#fff"></polygon></g><polygon points="236 266.97 236 245.96 233.86 244.72 233.86 265.73 236 266.97" style="fill:#263238"></polygon><polygon points="254.75 235.14 252.6 233.9 233.86 244.72 236 245.96 254.75 235.14" style="fill:#BA68C8"></polygon><polygon points="254.75 235.14 252.6 233.9 233.86 244.72 236 245.96 254.75 235.14" style="fill:#455a64"></polygon><polygon points="262.87 251.46 262.87 230.44 281.61 219.63 281.61 240.64 262.87 251.46" style="fill:#BA68C8"></polygon><polygon points="262.87 251.46 262.87 230.44 281.61 219.63 281.61 240.64 262.87 251.46" style="opacity:0.2"></polygon><polygon points="262.87 251.46 262.87 230.44 260.73 229.21 260.73 250.22 262.87 251.46" style="fill:#263238"></polygon><polygon points="281.61 219.63 279.47 218.39 260.73 229.21 262.87 230.44 281.61 219.63" style="fill:#455a64"></polygon><polygon points="289.73 235.95 289.73 214.94 308.47 204.12 308.47 225.13 289.73 235.95" style="fill:#BA68C8"></polygon><polygon points="289.73 235.95 289.73 214.94 287.59 213.7 287.59 234.71 289.73 235.95" style="fill:#263238"></polygon><polygon points="308.47 204.12 306.33 202.88 287.59 213.7 289.73 214.94 308.47 204.12" style="fill:#455a64"></polygon><polygon points="209.14 311.38 209.14 290.37 227.88 279.56 227.88 300.57 209.14 311.38" style="fill:#BA68C8"></polygon><polygon points="209.14 311.38 209.14 290.37 227.88 279.56 227.88 300.57 209.14 311.38" style="fill:#fff;opacity:0.30000000000000004"></polygon><polygon points="209.14 311.38 209.14 290.37 207 289.14 207 310.15 209.14 311.38" style="fill:#263238"></polygon><polygon points="227.88 279.56 225.74 278.32 207 289.14 209.14 290.37 227.88 279.56" style="fill:#455a64"></polygon><polygon points="236 295.88 236 274.87 254.75 264.05 254.74 285.06 236 295.88" style="fill:#BA68C8"></polygon><g style="opacity:0.6000000000000001"><polygon points="236 295.88 236 274.87 254.75 264.05 254.74 285.06 236 295.88" style="fill:#fff"></polygon></g><polygon points="236 295.88 236 274.87 233.86 273.63 233.86 294.64 236 295.88" style="fill:#263238"></polygon><polygon points="254.75 264.05 252.6 262.81 233.86 273.63 236 274.87 254.75 264.05" style="fill:#BA68C8"></polygon><polygon points="254.75 264.05 252.6 262.81 233.86 273.63 236 274.87 254.75 264.05" style="fill:#455a64"></polygon><polygon points="289.73 264.86 289.73 243.84 308.47 233.03 308.47 254.04 289.73 264.86" style="fill:#BA68C8"></polygon><polygon points="289.73 264.86 289.73 243.84 287.59 242.61 287.59 263.62 289.73 264.86" style="fill:#263238"></polygon><polygon points="308.47 233.03 306.33 231.79 287.59 242.61 289.73 243.84 308.47 233.03" style="fill:#455a64"></polygon><polygon points="209.14 340.3 209.14 319.28 227.88 308.46 227.88 329.48 209.14 340.3" style="fill:#BA68C8"></polygon><polygon points="209.14 340.3 209.14 319.28 227.88 308.46 227.88 329.48 209.14 340.3" style="fill:#fff;opacity:0.30000000000000004"></polygon><polygon points="209.14 340.3 209.14 319.28 207 318.05 207 339.06 209.14 340.3" style="fill:#263238"></polygon><polygon points="227.88 308.46 225.74 307.23 207 318.05 209.14 319.28 227.88 308.46" style="fill:#455a64"></polygon><path d="M230.85,328.4a.5.5,0,0,1-.5-.51V247.68a.5.5,0,0,1,.5-.51.51.51,0,0,1,.51.51v80.21A.51.51,0,0,1,230.85,328.4Z" style="fill:#e0e0e0"></path><path d="M257.73,312.88a.51.51,0,0,1-.5-.51V232.16a.51.51,0,1,1,1,0v80.21A.51.51,0,0,1,257.73,312.88Z" style="fill:#e0e0e0"></path><path d="M284.62,297.36a.51.51,0,0,1-.51-.51V216.64a.51.51,0,0,1,.51-.51.5.5,0,0,1,.5.51v80.21A.5.5,0,0,1,284.62,297.36Z" style="fill:#e0e0e0"></path><polygon points="300.35 304.12 300.35 290.04 308.47 292.38 300.35 304.12" style="fill:#BA68C8"></polygon><polygon points="302.13 297.95 207 352.88 207 348.31 302.13 293.38 302.13 297.95" style="fill:#BA68C8"></polygon></g><path d="M199.79,235.38a.17.17,0,0,1,.08.11.84.84,0,0,1,0,.1.9.9,0,0,1-.11.41.68.68,0,0,1-.26.29l-1.28.74a.44.44,0,0,1-.43.06l-.19-.12L194.45,234v4.69a.9.9,0,0,1-.11.41.68.68,0,0,1-.26.29l-1.09.63a.23.23,0,0,1-.26,0,.35.35,0,0,1-.11-.28V228.16a.93.93,0,0,1,.11-.41.74.74,0,0,1,.26-.29l1.09-.63a.21.21,0,0,1,.26,0,.32.32,0,0,1,.11.28v4.23l2.94-6a3,3,0,0,1,.26-.44,1,1,0,0,1,.35-.31l1.24-.72a.22.22,0,0,1,.26,0,.33.33,0,0,1,.1.28.69.69,0,0,1-.08.32l-3.63,7.37Z" style="fill:#BA68C8"></path><path d="M205.54,220.21q.22-.12.33,0a.85.85,0,0,1,.19.35l3.3,9.47a.36.36,0,0,1,0,.11.9.9,0,0,1-.11.41.68.68,0,0,1-.26.29l-1,.56c-.18.11-.31.13-.38.07a.51.51,0,0,1-.15-.21l-.58-1.67L202.67,232l-.58,2.33a2.12,2.12,0,0,1-.15.38.85.85,0,0,1-.38.37l-1,.56a.23.23,0,0,1-.26,0,.35.35,0,0,1-.11-.28.51.51,0,0,1,0-.13l3.3-13.29a3.14,3.14,0,0,1,.19-.57.83.83,0,0,1,.33-.34Zm.75,7.48-1.49-4.28-1.49,6Z" style="fill:#BA68C8"></path><path d="M216.73,226.35c-.15.09-.27.11-.35,0a.92.92,0,0,1-.17-.15l-3.78-5.3v7.41a.9.9,0,0,1-.11.41.74.74,0,0,1-.26.29l-1.09.63a.23.23,0,0,1-.26,0,.35.35,0,0,1-.1-.29V217.78a.88.88,0,0,1,.1-.41.83.83,0,0,1,.26-.29l.94-.54c.16-.09.28-.11.36,0l.17.16,3.78,5.3v-7.42a.89.89,0,0,1,.11-.4.68.68,0,0,1,.26-.29l1.09-.63a.23.23,0,0,1,.26,0,.34.34,0,0,1,.1.28v11.63a.91.91,0,0,1-.1.41.83.83,0,0,1-.26.29Z" style="fill:#BA68C8"></path><path d="M220.51,224.17a.2.2,0,0,1-.25,0,.32.32,0,0,1-.11-.28V212.27a.9.9,0,0,1,.11-.41.73.73,0,0,1,.25-.29l4-2.3a2.89,2.89,0,0,1,1.44-.48,1.34,1.34,0,0,1,.93.34,1.82,1.82,0,0,1,.51.86,4,4,0,0,1,.15,1.07,4.87,4.87,0,0,1-.1,1,6,6,0,0,1-.27.87,4.71,4.71,0,0,1-.31.67,2.54,2.54,0,0,1-.25.42,1.55,1.55,0,0,1,.77.63,2.63,2.63,0,0,1,.35,1.55,6.18,6.18,0,0,1-.19,1.47,7.38,7.38,0,0,1-.55,1.53,6.72,6.72,0,0,1-.91,1.4,4.71,4.71,0,0,1-1.26,1.06Zm5.2-12c0-.46-.11-.74-.32-.85s-.56,0-1,.24L222,213v2.77l2.39-1.38a2.79,2.79,0,0,0,1-.94A2.39,2.39,0,0,0,225.71,212.21ZM222,221.08l2.5-1.44a2.9,2.9,0,0,0,1.09-1,2.67,2.67,0,0,0,.34-1.31,1,1,0,0,0-.36-.91c-.24-.15-.59-.09-1.07.19L222,218Z" style="fill:#BA68C8"></path><path d="M233.7,204c.15-.09.26-.1.33,0a.85.85,0,0,1,.19.35l3.3,9.47a.37.37,0,0,1,0,.12.89.89,0,0,1-.11.4.62.62,0,0,1-.26.29l-1,.56c-.18.11-.3.13-.38.07a.51.51,0,0,1-.15-.21l-.58-1.67-4.26,2.47-.58,2.33a2.12,2.12,0,0,1-.15.38.85.85,0,0,1-.38.37l-1,.57a.24.24,0,0,1-.26,0,.33.33,0,0,1-.1-.28.53.53,0,0,1,0-.13l3.31-13.29a2.23,2.23,0,0,1,.19-.57.8.8,0,0,1,.32-.34Zm.75,7.47L233,207.16l-1.48,6Z" style="fill:#BA68C8"></path><path d="M244.9,210.09c-.16.09-.27.11-.36,0a.92.92,0,0,1-.17-.15l-3.78-5.3v7.41a.9.9,0,0,1-.11.41.68.68,0,0,1-.26.29l-1.09.63a.23.23,0,0,1-.26,0,.34.34,0,0,1-.1-.28V201.52a.91.91,0,0,1,.1-.41.83.83,0,0,1,.26-.29l1-.54c.15-.09.27-.11.35,0a.92.92,0,0,1,.17.15l3.78,5.3v-7.41a.9.9,0,0,1,.11-.41.68.68,0,0,1,.26-.29l1.09-.63a.23.23,0,0,1,.26,0,.34.34,0,0,1,.1.28v11.63a.91.91,0,0,1-.1.41.83.83,0,0,1-.26.29Z" style="fill:#BA68C8"></path></g></g><g id="freepik--Scrum--inject-21"><g id="freepik--scrum--inject-21"><g style="opacity:0.2"><path d="M47.19,331.58,170,260.69c.79-.45,1.43-.08,1.43.83V372.68a3.14,3.14,0,0,1-1.43,2.47L47.19,446c-.79.46-1.43.09-1.43-.82V334.05A3.14,3.14,0,0,1,47.19,331.58Z"></path></g><g id="freepik--box--inject-21"><path d="M168,267.24,51.1,334.68a3.46,3.46,0,0,0-1.57,2.72V445.8a3.44,3.44,0,0,0,1.58,2.71l3,1.7a3.55,3.55,0,0,0,3.16,0l116.84-67.44a3.48,3.48,0,0,0,1.58-2.73V271.64a3.43,3.43,0,0,0-1.59-2.71l-3-1.7A3.52,3.52,0,0,0,168,267.24Z" style="fill:#455a64"></path><path d="M57.27,450.2a3.61,3.61,0,0,1-3.16,0l-3-1.7a3.44,3.44,0,0,1-1.58-2.71V337.4a3.16,3.16,0,0,1,.5-1.6l6.13,3.54a3.17,3.17,0,0,0-.47,1.55V449.28C55.69,450.2,56.34,450.73,57.27,450.2Z" style="fill:#263238"></path><path d="M174.11,270.73,57.27,338.16a3.51,3.51,0,0,0-1.58,2.73v108.4c0,1,.71,1.41,1.58.91l116.84-67.44a3.48,3.48,0,0,0,1.58-2.73V271.64C175.69,270.63,175,270.23,174.11,270.73Z" style="fill:#fff"></path><path d="M174.43,272V380a2.28,2.28,0,0,1-1,1.64L57,448.92v-108a2.24,2.24,0,0,1,.95-1.63L174.43,272m.39-1.48a1.42,1.42,0,0,0-.71.21L57.27,338.16a3.51,3.51,0,0,0-1.58,2.73v108.4c0,.71.36,1.12.87,1.12a1.5,1.5,0,0,0,.71-.21l116.84-67.44a3.48,3.48,0,0,0,1.58-2.73V271.64c0-.71-.36-1.12-.87-1.12Z" style="fill:#e0e0e0"></path></g><g id="freepik--scrum--inject-21"><g id="freepik--Arrow--inject-21"><polygon points="150.91 376.84 150.91 352.31 157.78 356.27 157.78 380.8 150.91 376.84" style="fill:#BA68C8"></polygon><polygon points="150.91 376.84 150.91 352.31 157.78 356.27 157.78 380.8 150.91 376.84" style="opacity:0.15"></polygon><polygon points="66.15 417.1 66.15 428.94 73.02 432.91 73.02 421.07 66.15 417.1" style="fill:#BA68C8"></polygon><g style="opacity:0.15"><polygon points="66.15 417.1 66.15 428.94 73.02 432.91 73.02 421.07 66.15 417.1"></polygon></g><path d="M157.77,362.62l-53.24,30.75c-5.2,3-9.48,2-11.79-2.27a11.79,11.79,0,0,0,4.92-1.69l53.25-30.76Z" style="fill:#BA68C8"></path><path d="M157.77,362.62l-53.24,30.75c-5.2,3-9.48,2-11.79-2.27a11.79,11.79,0,0,0,4.92-1.69l53.25-30.76Z" style="fill:#fff;opacity:0.30000000000000004"></path><path d="M167.61,362.84l-9.84-6.57v6.35l-53.24,30.75c-5.2,3-9.48,2-11.79-2.27h0a14.23,14.23,0,0,1-1.38-3.91,19.48,19.48,0,0,1-.08-7.34c2.47-14.3,17.41-32.43,32-32.83l9.56-9.82a13.19,13.19,0,0,0-6.82-1.83c-24.63,0-44.89,29.13-44.89,48.41,0,10.56,3.52,18,9.07,21.19h0c4.6,2.65,10.59,2.4,17.13-1.38l50.4-29.12v6.34Z" style="fill:#BA68C8"></path><path d="M90.24,405l-6.86-4c-5.56-3.2-9.08-10.63-9.08-21.18,0-19.29,20.26-48.42,44.89-48.42a13.45,13.45,0,0,1,6.83,1.84l6.86,4a13.19,13.19,0,0,0-6.82-1.83c-24.63,0-44.89,29.13-44.89,48.41,0,10.56,3.52,18,9.07,21.19Z" style="fill:#BA68C8"></path><path d="M90.24,405l-6.86-4c-5.56-3.2-9.08-10.63-9.08-21.18,0-19.29,20.26-48.42,44.89-48.42a13.45,13.45,0,0,1,6.83,1.84l6.86,4a13.19,13.19,0,0,0-6.82-1.83c-24.63,0-44.89,29.13-44.89,48.41,0,10.56,3.52,18,9.07,21.19Z" style="fill:#fff;opacity:0.30000000000000004"></path><path d="M66.15,417.1l39.79-23h0c.44-.26.88-.54,1.33-.86,9.06-6.29,17-22.06,17.85-35.22.29-4.72-.39-8.47-1.8-11h.51c5.36-.1,8.74,5.45,8.16,15-.8,13.15-8.79,28.92-17.85,35.22-.45.31-.89.59-1.33.85h0L73,421.06Z" style="fill:#BA68C8"></path><path d="M66.15,417.1l39.79-23h0c.44-.26.88-.54,1.33-.86,9.06-6.29,17-22.06,17.85-35.22.29-4.72-.39-8.47-1.8-11h.51c5.36-.1,8.74,5.45,8.16,15-.8,13.15-8.79,28.92-17.85,35.22-.45.31-.89.59-1.33.85h0L73,421.06Z" style="fill:#fff;opacity:0.30000000000000004"></path><path d="M132.88,337.2,123.32,347h.51c5.36-.1,8.74,5.45,8.16,15-.8,13.15-8.79,28.92-17.85,35.22-.45.31-.89.59-1.33.85h0L73,421.06v11.85l42.57-24.58c14.46-8.35,26.18-30.75,26.18-50C141.77,347.86,138.33,340.45,132.88,337.2Z" style="fill:#BA68C8"></path><path d="M107.27,393.27c8.84-6.66,15-19.51,17.15-30.2l.43-2.5.27-2.52-.19,2.53-.35,2.52c-1.91,10.76-8.17,23.81-17.31,30.17Z" style="fill:#BA68C8"></path><path d="M115.59,408.33c14-8.7,23.09-26.78,25.57-42.73a52.34,52.34,0,0,0,.61-7.3,51.12,51.12,0,0,1-.45,7.32c-2.23,16-11.43,34.33-25.73,42.71Z" style="fill:#BA68C8"></path><path d="M115.59,408.33c14-8.7,23.09-26.78,25.57-42.73a52.34,52.34,0,0,0,.61-7.3,51.12,51.12,0,0,1-.45,7.32c-2.23,16-11.43,34.33-25.73,42.71Z" style="opacity:0.15"></path></g><g id="freepik--arrow--inject-21"><path d="M142,301.12c-2.92-1.69-7-1.44-11.41,1.13-8.9,5.14-16.13,17.65-16.13,27.94a19.8,19.8,0,0,0,.11,2.08l5.78,3.34a20.73,20.73,0,0,1-.11-2.12c0-.33,0-.66,0-1,.39-8.93,6-19.25,13.2-25a24.51,24.51,0,0,1,2.91-2c4.46-2.58,8.49-2.82,11.41-1.13C146,303.39,143.73,302.14,142,301.12Z" style="fill:#263238"></path><path d="M146.56,317.73a24.71,24.71,0,0,1-2.77,9.36L138,323.8a24.81,24.81,0,0,0,2.77-9.37,11,11,0,0,0-.4-4,4.93,4.93,0,0,1,3.63.4C145.78,311.88,146.77,314.25,146.56,317.73Z" style="fill:#263238"></path><path d="M152.46,314.86c0-5.15-1.8-8.76-4.72-10.44s-7-1.45-11.41,1.12a24.61,24.61,0,0,0-2.91,2c-7.25,5.72-12.81,16.05-13.2,25,0,.33,0,.66,0,1a20.23,20.23,0,0,0,.11,2.11,35.68,35.68,0,0,1,5.48-.52,11.76,11.76,0,0,1-.26-3.47c.42-6.95,5.47-15.69,11.27-19.52a11.18,11.18,0,0,1,3.58-1.63,5,5,0,0,1,3.64.4c1.76,1,2.75,3.39,2.54,6.87a24.71,24.71,0,0,1-2.77,9.36l-1.5-2.6-3.64,14.06,9.58-3.76-1.43-2.49C150.26,326.89,152.46,320.54,152.46,314.86Z" style="fill:#455a64"></path><polygon points="142.29 324.49 136.51 321.2 132.87 335.26 138.65 338.55 142.29 324.49" style="fill:#37474f"></polygon></g></g><path d="M53.82,307.63a4.16,4.16,0,0,1,1.59-.6,2.29,2.29,0,0,1,1.15.15,1.52,1.52,0,0,1,.7.67,2.45,2.45,0,0,1,.26,1,.78.78,0,0,1-.1.41.73.73,0,0,1-.27.28l-.94.55a.43.43,0,0,1-.35.08.51.51,0,0,1-.2-.19.91.91,0,0,0-.62-.43,1.87,1.87,0,0,0-1.22.37,4.41,4.41,0,0,0-.67.49,3.88,3.88,0,0,0-.55.6,2.82,2.82,0,0,0-.37.68,1.89,1.89,0,0,0-.14.69,1.07,1.07,0,0,0,.13.6.54.54,0,0,0,.43.2,3.12,3.12,0,0,0,.81-.11l1.24-.34a5.54,5.54,0,0,1,1.39-.26,1.63,1.63,0,0,1,1,.2,1.37,1.37,0,0,1,.56.7,3.39,3.39,0,0,1,.18,1.21,5.48,5.48,0,0,1-.27,1.66,7.12,7.12,0,0,1-.77,1.63,8,8,0,0,1-1.23,1.49,8.61,8.61,0,0,1-1.63,1.23,5.21,5.21,0,0,1-1.45.59,2.4,2.4,0,0,1-1.22,0,1.62,1.62,0,0,1-.86-.62A2.36,2.36,0,0,1,50,319.3a.69.69,0,0,1,.1-.41.71.71,0,0,1,.26-.28l1-.55a.44.44,0,0,1,.35-.09.33.33,0,0,1,.2.2,2,2,0,0,0,.23.34.64.64,0,0,0,.37.2,1.43,1.43,0,0,0,.57,0,3.65,3.65,0,0,0,.86-.38,6.7,6.7,0,0,0,.78-.53,4.52,4.52,0,0,0,.66-.65,3.63,3.63,0,0,0,.46-.74,1.79,1.79,0,0,0,.18-.79.68.68,0,0,0-.19-.54.83.83,0,0,0-.58-.1,6.24,6.24,0,0,0-1,.21c-.38.11-.81.22-1.31.34a4.59,4.59,0,0,1-1.18.17,1.49,1.49,0,0,1-.84-.25,1.41,1.41,0,0,1-.49-.73,4.21,4.21,0,0,1-.16-1.3,5.37,5.37,0,0,1,.27-1.65,7.26,7.26,0,0,1,.74-1.6,8,8,0,0,1,1.13-1.42A7.21,7.21,0,0,1,53.82,307.63Z" style="fill:#BA68C8"></path><path d="M65.13,309.88a1.15,1.15,0,0,1,.14-.43.78.78,0,0,1,.25-.26l1.1-.63a.23.23,0,0,1,.26,0c.08,0,.11.14.1.29a8,8,0,0,1-.27,1.64,7.85,7.85,0,0,1-.73,1.75,9,9,0,0,1-1.22,1.68,7.5,7.5,0,0,1-1.8,1.41,3.73,3.73,0,0,1-1.65.58,1.7,1.7,0,0,1-1.21-.32,2.36,2.36,0,0,1-.78-1.13,6.43,6.43,0,0,1-.33-1.8q0-.67,0-1.5t0-1.53a11.59,11.59,0,0,1,.33-2.19,9.29,9.29,0,0,1,.78-2,8.28,8.28,0,0,1,1.21-1.73A7,7,0,0,1,63,302.35a4.54,4.54,0,0,1,1.8-.66A2,2,0,0,1,66,302a1.83,1.83,0,0,1,.73.92,4.3,4.3,0,0,1,.27,1.31.69.69,0,0,1-.1.41.65.65,0,0,1-.26.28l-1.1.64a.28.28,0,0,1-.25,0q-.12,0-.15-.27a1.58,1.58,0,0,0-.19-.59.92.92,0,0,0-.4-.38,1.22,1.22,0,0,0-.65-.07,2.79,2.79,0,0,0-.92.36,3.73,3.73,0,0,0-.92.75,4.33,4.33,0,0,0-.65.95,5,5,0,0,0-.41,1.1,6.77,6.77,0,0,0-.17,1.16c0,.47,0,1,0,1.53s0,1.05,0,1.49a3.83,3.83,0,0,0,.17,1,1.35,1.35,0,0,0,.41.62,1,1,0,0,0,.65.2,2,2,0,0,0,.92-.32,4.06,4.06,0,0,0,.92-.7,4.41,4.41,0,0,0,.65-.82,3.9,3.9,0,0,0,.41-.85A3.16,3.16,0,0,0,65.13,309.88Z" style="fill:#BA68C8"></path><path d="M72.41,297.08c1.12-.65,2-.8,2.56-.44s.88,1.16.88,2.39a7,7,0,0,1-.45,2.5,6.67,6.67,0,0,1-1.33,2.15l1.86,3.37a.35.35,0,0,1,0,.17.8.8,0,0,1-.08.33.56.56,0,0,1-.21.24l-1.15.66c-.18.11-.31.13-.4.06a.44.44,0,0,1-.18-.21l-1.77-3.17-1.8,1v4.19a.91.91,0,0,1-.1.41.83.83,0,0,1-.26.29l-1.09.63a.21.21,0,0,1-.26,0,.33.33,0,0,1-.11-.28V299.79a.9.9,0,0,1,.11-.41.68.68,0,0,1,.26-.29Zm-2,6.84,2-1.13a4.17,4.17,0,0,0,1.23-1.07,2.68,2.68,0,0,0,.46-1.64c0-.67-.15-1-.46-1.08a2,2,0,0,0-1.23.37l-2,1.13Z" style="fill:#BA68C8"></path><path d="M84.91,289.86a.21.21,0,0,1,.26,0,.31.31,0,0,1,.1.27v7.39a9.51,9.51,0,0,1-.24,2.15,7.89,7.89,0,0,1-.73,2,7.51,7.51,0,0,1-1.21,1.7,7.36,7.36,0,0,1-1.69,1.33,4.29,4.29,0,0,1-1.69.62,1.62,1.62,0,0,1-1.21-.3,2.06,2.06,0,0,1-.72-1.13,6.32,6.32,0,0,1-.24-1.88V294.6a.89.89,0,0,1,.11-.4.61.61,0,0,1,.25-.29l1.1-.64a.23.23,0,0,1,.25,0,.31.31,0,0,1,.11.28v7.29a3.69,3.69,0,0,0,.15,1.17,1.18,1.18,0,0,0,.42.62.88.88,0,0,0,.65.11,2.51,2.51,0,0,0,.82-.32,5,5,0,0,0,.83-.63,4.07,4.07,0,0,0,.66-.87,4.93,4.93,0,0,0,.42-1.1,5.68,5.68,0,0,0,.16-1.35v-7.29a.85.85,0,0,1,.1-.4.78.78,0,0,1,.26-.3Z" style="fill:#BA68C8"></path><path d="M91.74,292.34l2.57-7.42q0-.12.18-.39a1,1,0,0,1,.4-.43l.92-.53a.2.2,0,0,1,.25,0,.32.32,0,0,1,.11.28v11.62a.9.9,0,0,1-.11.41.73.73,0,0,1-.25.29l-1.1.63a.23.23,0,0,1-.26,0,.34.34,0,0,1-.1-.28v-7l-1.76,5.06a2.86,2.86,0,0,1-.19.41.77.77,0,0,1-.31.33l-.7.4c-.13.08-.23.09-.31,0a.69.69,0,0,1-.19-.19l-1.75-3v7a.9.9,0,0,1-.11.41.68.68,0,0,1-.26.29l-1.09.63a.23.23,0,0,1-.26,0,.35.35,0,0,1-.11-.28V289a.93.93,0,0,1,.11-.41.74.74,0,0,1,.26-.29l.92-.53c.17-.1.31-.11.39,0l.19.18Z" style="fill:#BA68C8"></path></g></g><g id="freepik--Waterfall--inject-21"><g id="freepik--waterfall--inject-21"><g style="opacity:0.2"><path d="M189.23,97,312,26.07c.79-.45,1.43-.08,1.43.83V138.06a3.14,3.14,0,0,1-1.43,2.47L189.23,211.41c-.79.46-1.43.09-1.43-.82V99.43A3.14,3.14,0,0,1,189.23,97Z"></path></g><g id="freepik--box--inject-21"><path d="M310,32.62,193.15,100.06a3.48,3.48,0,0,0-1.58,2.72v108.4a3.44,3.44,0,0,0,1.58,2.71l3,1.7a3.52,3.52,0,0,0,3.16,0l116.85-67.43a3.47,3.47,0,0,0,1.57-2.73V37a3.43,3.43,0,0,0-1.58-2.71l-3-1.7A3.52,3.52,0,0,0,310,32.62Z" style="fill:#455a64"></path><path d="M199.31,215.57a3.58,3.58,0,0,1-3.16,0l-3-1.7a3.43,3.43,0,0,1-1.59-2.71V102.78a3.32,3.32,0,0,1,.5-1.61l6.13,3.55a3.15,3.15,0,0,0-.46,1.55V214.66C197.74,215.58,198.38,216.11,199.31,215.57Z" style="fill:#263238"></path><path d="M316.16,36.11,199.31,103.54a3.5,3.5,0,0,0-1.57,2.73v108.4c0,1,.7,1.41,1.57.9l116.85-67.43a3.47,3.47,0,0,0,1.57-2.73V37C317.73,36,317,35.61,316.16,36.11Z" style="fill:#fff"></path><path d="M316.47,37.38v108a2.27,2.27,0,0,1-.94,1.64L199,214.3v-108a2.23,2.23,0,0,1,.94-1.63L316.47,37.38m.39-1.49a1.38,1.38,0,0,0-.7.22L199.31,103.54a3.5,3.5,0,0,0-1.57,2.73v108.4c0,.71.35,1.12.87,1.12a1.38,1.38,0,0,0,.7-.22l116.85-67.43a3.47,3.47,0,0,0,1.57-2.73V37c0-.71-.35-1.13-.87-1.13Z" style="fill:#e0e0e0"></path></g><g id="freepik--waterfall--inject-21"><rect x="207.97" y="172.59" width="54.57" height="0.94" transform="translate(-55.01 140.79) rotate(-30)" style="fill:#455a64"></rect><rect x="208.77" y="156.9" width="42.64" height="0.94" transform="translate(-47.85 136.09) rotate(-29.99)" style="fill:#455a64"></rect><rect x="209.57" y="141.2" width="30.7" height="0.94" transform="translate(-40.7 131.41) rotate(-29.99)" style="fill:#455a64"></rect><rect x="210.36" y="125.5" width="18.77" height="0.94" transform="translate(-33.55 126.72) rotate(-29.99)" style="fill:#455a64"></rect><polygon points="212.09 186.7 211.15 186.7 211.15 111.71 217.3 108.16 217.77 108.97 212.09 112.26 212.09 186.7" style="fill:#455a64"></polygon><path d="M260.16,158.68a3.08,3.08,0,0,1-1.27,2.45c-.71.4-1.28,0-1.28-1a3.05,3.05,0,0,1,1.28-2.44C259.59,157.31,260.16,157.74,260.16,158.68Z" style="fill:#455a64"></path><path d="M249.83,146a3.07,3.07,0,0,1-1.28,2.44c-.71.41-1.28,0-1.28-1a3.07,3.07,0,0,1,1.28-2.45C249.25,144.6,249.83,145,249.83,146Z" style="fill:#455a64"></path><path d="M239.49,133.26a3.05,3.05,0,0,1-1.28,2.44c-.7.41-1.28,0-1.28-1a3.08,3.08,0,0,1,1.28-2.44C238.92,131.88,239.49,132.32,239.49,133.26Z" style="fill:#455a64"></path><path d="M229.15,120.54a3.07,3.07,0,0,1-1.28,2.45c-.7.4-1.27,0-1.27-1a3.06,3.06,0,0,1,1.27-2.44C228.58,119.17,229.15,119.6,229.15,120.54Z" style="fill:#455a64"></path><path d="M218.82,107.83a3.08,3.08,0,0,1-1.28,2.44c-.71.41-1.28,0-1.28-1a3.05,3.05,0,0,1,1.28-2.44C218.24,106.45,218.82,106.89,218.82,107.83Z" style="fill:#455a64"></path><path d="M271.25,88.82V75.22a.47.47,0,0,0-.24-.41.49.49,0,0,0-.47,0l-12,6.91a.47.47,0,0,0-.18.64.47.47,0,0,0,.65.17L270.3,76V89.36l-1.77,1,2.25,2.09L273,87.79Z" style="fill:#BA68C8"></path><path d="M281.59,101.87V88.27a.47.47,0,0,0-.24-.41.49.49,0,0,0-.47,0l-11.95,6.91a.47.47,0,0,0-.17.64.46.46,0,0,0,.64.17l11.25-6.49v13.32l-1.78,1,2.25,2.09,2.25-4.69Z" style="fill:#BA68C8"></path><path d="M291.93,114.92v-13.6a.47.47,0,0,0-.7-.41l-12,6.91a.47.47,0,1,0,.48.81l11.24-6.5v13.33l-1.77,1,2.24,2.09,2.25-4.69Z" style="fill:#BA68C8"></path><path d="M302.28,128v-13.6A.46.46,0,0,0,302,114a.49.49,0,0,0-.47,0l-11.95,6.91a.46.46,0,0,0-.17.64.47.47,0,0,0,.64.17l11.25-6.5v13.33l-1.78,1,2.25,2.1,2.25-4.69Z" style="fill:#BA68C8"></path><polygon points="262.03 153.23 272.02 159 306.49 139.09 296.5 133.33 262.03 153.23" style="fill:#BA68C8"></polygon><polygon points="262.03 153.23 272.02 159 306.49 139.09 296.5 133.33 262.03 153.23" style="fill:#fff;opacity:0.30000000000000004"></polygon><polygon points="262.03 153.23 272.02 159 272.02 163.97 262.03 158.21 262.03 153.23" style="fill:#BA68C8"></polygon><polygon points="262.03 153.23 272.02 159 272.02 163.97 262.03 158.21 262.03 153.23" style="opacity:0.15"></polygon><polygon points="306.49 139.09 306.49 144.07 272.02 163.97 272.02 159 306.49 139.09" style="fill:#BA68C8"></polygon><polygon points="220.17 102.21 230.16 107.97 264.63 88.07 254.64 82.31 220.17 102.21" style="fill:#BA68C8"></polygon><polygon points="220.17 102.21 230.16 107.97 264.63 88.07 254.64 82.31 220.17 102.21" style="fill:#fff;opacity:0.30000000000000004"></polygon><polygon points="220.17 102.21 230.16 107.97 230.16 112.95 220.17 107.19 220.17 102.21" style="fill:#BA68C8"></polygon><polygon points="220.17 102.21 230.16 107.97 230.16 112.95 220.17 107.19 220.17 102.21" style="opacity:0.15"></polygon><polygon points="264.63 88.07 264.63 93.05 230.16 112.95 230.16 107.97 264.63 88.07" style="fill:#BA68C8"></polygon><polygon points="230.63 114.96 240.62 120.73 275.09 100.82 265.1 95.06 230.63 114.96" style="fill:#BA68C8"></polygon><polygon points="230.63 114.96 240.62 120.73 275.09 100.82 265.1 95.06 230.63 114.96" style="fill:#fff;opacity:0.30000000000000004"></polygon><polygon points="230.63 114.96 240.62 120.73 240.62 125.7 230.63 119.94 230.63 114.96" style="fill:#BA68C8"></polygon><polygon points="230.63 114.96 240.62 120.73 240.62 125.7 230.63 119.94 230.63 114.96" style="opacity:0.15"></polygon><polygon points="275.09 100.82 275.09 105.8 240.62 125.7 240.62 120.73 275.09 100.82" style="fill:#BA68C8"></polygon><polygon points="241.08 127.71 251.07 133.48 285.54 113.58 275.55 107.81 241.08 127.71" style="fill:#BA68C8"></polygon><polygon points="241.08 127.71 251.07 133.48 285.54 113.58 275.55 107.81 241.08 127.71" style="fill:#fff;opacity:0.30000000000000004"></polygon><polygon points="241.08 127.71 251.07 133.48 251.07 138.46 241.08 132.69 241.08 127.71" style="fill:#BA68C8"></polygon><polygon points="241.08 127.71 251.07 133.48 251.07 138.46 241.08 132.69 241.08 127.71" style="opacity:0.15"></polygon><polygon points="285.54 113.58 285.54 118.55 251.07 138.46 251.07 133.48 285.54 113.58" style="fill:#BA68C8"></polygon><polygon points="251.54 140.47 261.52 146.23 296 126.33 286.01 120.56 251.54 140.47" style="fill:#BA68C8"></polygon><polygon points="251.54 140.47 261.52 146.23 296 126.33 286.01 120.56 251.54 140.47" style="fill:#fff;opacity:0.30000000000000004"></polygon><polygon points="251.54 140.47 261.52 146.23 261.52 151.21 251.54 145.44 251.54 140.47" style="fill:#BA68C8"></polygon><polygon points="251.54 140.47 261.52 146.23 261.52 151.21 251.54 145.44 251.54 140.47" style="opacity:0.15"></polygon><polygon points="296 126.33 296 131.3 261.52 151.21 261.52 146.23 296 126.33" style="fill:#BA68C8"></polygon></g><path d="M197,78.33l-1.16,6a2.29,2.29,0,0,1-.17.54.65.65,0,0,1-.3.35l-1.09.63c-.14.08-.24.08-.32,0a.6.6,0,0,1-.16-.35L192.06,75.2a.93.93,0,0,1,0-.14.89.89,0,0,1,.11-.4.62.62,0,0,1,.26-.29l1-.58a.29.29,0,0,1,.25,0c.08,0,.14.12.17.28L195,81l1-5.38a2.23,2.23,0,0,1,.13-.4.72.72,0,0,1,.34-.39l1.11-.64c.16-.1.27-.1.34,0a.86.86,0,0,1,.13.25l1,4.23,1.13-8.28a1,1,0,0,1,.17-.48.85.85,0,0,1,.25-.25l1-.58a.22.22,0,0,1,.26,0,.33.33,0,0,1,.11.28s0,.08,0,.15l-1.73,12.36a1.81,1.81,0,0,1-.15.53.84.84,0,0,1-.32.35l-1.09.63c-.14.08-.24.08-.31,0a1,1,0,0,1-.16-.35Z" style="fill:#BA68C8"></path><path d="M207.38,65.72c.14-.08.25-.09.32,0a.75.75,0,0,1,.19.35l3.31,9.46a.49.49,0,0,1,0,.12.79.79,0,0,1-.11.41.66.66,0,0,1-.25.29l-1,.56c-.18.11-.31.13-.38.07a.51.51,0,0,1-.15-.21l-.58-1.67-4.27,2.47-.58,2.33a1.24,1.24,0,0,1-.15.38.83.83,0,0,1-.37.37l-1,.56a.21.21,0,0,1-.25,0,.35.35,0,0,1-.11-.28.66.66,0,0,1,0-.14l3.31-13.28a3.14,3.14,0,0,1,.19-.57.81.81,0,0,1,.32-.34Zm.74,7.48-1.48-4.28-1.49,6Z" style="fill:#BA68C8"></path><path d="M217.77,59.72a.21.21,0,0,1,.26,0,.32.32,0,0,1,.11.28v1.27a.9.9,0,0,1-.11.41.68.68,0,0,1-.26.29l-2.43,1.41v9.86a.88.88,0,0,1-.1.4.68.68,0,0,1-.26.29l-1.09.64a.24.24,0,0,1-.26,0,.33.33,0,0,1-.11-.28V64.43l-2.43,1.4a.2.2,0,0,1-.25,0c-.08,0-.11-.14-.11-.28V64.28a.79.79,0,0,1,.11-.41.66.66,0,0,1,.25-.29Z" style="fill:#BA68C8"></path><path d="M225.78,65.45a.21.21,0,0,1,.26,0,.32.32,0,0,1,.1.28V67a.88.88,0,0,1-.1.41.75.75,0,0,1-.26.29l-5.93,3.42a.21.21,0,0,1-.25,0,.32.32,0,0,1-.11-.28V59.22a.82.82,0,0,1,.11-.41.72.72,0,0,1,.25-.29l5.82-3.36a.22.22,0,0,1,.26,0,.33.33,0,0,1,.11.28v1.28a.89.89,0,0,1-.11.4.62.62,0,0,1-.26.29l-4.36,2.52v2.86l4.06-2.34a.23.23,0,0,1,.26,0,.35.35,0,0,1,.11.28V62a.86.86,0,0,1-.11.4.71.71,0,0,1-.26.3L221.31,65v3Z" style="fill:#BA68C8"></path><path d="M231.66,51.7c1.13-.65,2-.79,2.57-.44s.88,1.16.88,2.4a7,7,0,0,1-.45,2.5,6.92,6.92,0,0,1-1.33,2.14l1.86,3.37a.39.39,0,0,1,0,.18.68.68,0,0,1-.09.33.53.53,0,0,1-.21.23l-1.14.67c-.19.1-.32.12-.4.06a.72.72,0,0,1-.19-.21l-1.76-3.18-1.8,1V65a.9.9,0,0,1-.11.41.73.73,0,0,1-.25.29l-1.1.63a.21.21,0,0,1-.25,0,.32.32,0,0,1-.11-.28V54.41a.82.82,0,0,1,.11-.41.72.72,0,0,1,.25-.29Zm-2,6.84,2-1.13a4,4,0,0,0,1.23-1.07,2.74,2.74,0,0,0,.46-1.63c0-.67-.16-1-.46-1.09a2,2,0,0,0-1.23.37l-2,1.13Z" style="fill:#BA68C8"></path><path d="M243,45.16a.22.22,0,0,1,.26,0,.33.33,0,0,1,.11.28v1.28a.89.89,0,0,1-.11.4.62.62,0,0,1-.26.29l-4.3,2.49v3.49l4-2.33a.21.21,0,0,1,.26,0,.32.32,0,0,1,.11.28v1.27A.9.9,0,0,1,243,53a.68.68,0,0,1-.26.29l-4,2.33v4.12a.9.9,0,0,1-.11.41.74.74,0,0,1-.26.29l-1.09.63a.21.21,0,0,1-.26,0,.32.32,0,0,1-.11-.28V49.19a.9.9,0,0,1,.11-.41.74.74,0,0,1,.26-.29Z" style="fill:#BA68C8"></path><path d="M248.81,41.8c.14-.08.25-.09.32,0a.67.67,0,0,1,.19.35l3.31,9.47a.37.37,0,0,1,0,.11.88.88,0,0,1-.1.41.75.75,0,0,1-.26.29l-1,.56c-.18.11-.31.13-.38.07a.51.51,0,0,1-.15-.21l-.58-1.67-4.26,2.46L245.35,56a1.49,1.49,0,0,1-.14.38.91.91,0,0,1-.38.37l-1,.56a.23.23,0,0,1-.26,0,.35.35,0,0,1-.11-.28c0-.05,0-.09,0-.14l3.31-13.28A2.9,2.9,0,0,1,247,43a.77.77,0,0,1,.33-.34Zm.74,7.48L248.07,45l-1.49,6Z" style="fill:#BA68C8"></path><path d="M260.15,45.61a.23.23,0,0,1,.26,0,.34.34,0,0,1,.1.28v1.28a.85.85,0,0,1-.1.4.78.78,0,0,1-.26.3l-5.91,3.41a.21.21,0,0,1-.26,0,.32.32,0,0,1-.11-.28V39.37A.9.9,0,0,1,254,39a.74.74,0,0,1,.26-.29l1.09-.63a.23.23,0,0,1,.26,0,.35.35,0,0,1,.11.28v9.87Z" style="fill:#BA68C8"></path><path d="M268.09,41c.1-.05.18-.06.25,0a.31.31,0,0,1,.11.28v1.28a.78.78,0,0,1-.11.4.61.61,0,0,1-.25.29l-5.92,3.42a.21.21,0,0,1-.25,0,.33.33,0,0,1-.11-.28V34.78a.89.89,0,0,1,.11-.4.67.67,0,0,1,.25-.29l1.1-.63a.21.21,0,0,1,.25,0,.32.32,0,0,1,.11.28v9.86Z" style="fill:#BA68C8"></path></g></g><g id="freepik--Agile--inject-21"><g id="freepik--agile--inject-21"><g style="opacity:0.2"><path d="M47.19,178.93,170,108.05c.79-.45,1.43-.09,1.43.83V220a3.16,3.16,0,0,1-1.43,2.48L47.19,293.39c-.79.46-1.43.09-1.43-.82V181.41A3.18,3.18,0,0,1,47.19,178.93Z"></path></g><g id="freepik--box--inject-21"><path d="M168,114.6,51.1,182a3.48,3.48,0,0,0-1.57,2.73v108.4a3.46,3.46,0,0,0,1.58,2.71l3,1.7a3.55,3.55,0,0,0,3.16,0l116.84-67.43a3.49,3.49,0,0,0,1.58-2.73V119a3.44,3.44,0,0,0-1.59-2.72l-3-1.7A3.55,3.55,0,0,0,168,114.6Z" style="fill:#455a64"></path><path d="M57.27,297.55a3.58,3.58,0,0,1-3.16,0l-3-1.71a3.41,3.41,0,0,1-1.58-2.7V184.76a3.22,3.22,0,0,1,.5-1.61l6.13,3.55a3.17,3.17,0,0,0-.47,1.55V296.64C55.69,297.56,56.34,298.09,57.27,297.55Z" style="fill:#263238"></path><path d="M174.11,118.09,57.27,185.52a3.48,3.48,0,0,0-1.58,2.73V296.64c0,1,.71,1.41,1.58.91l116.84-67.43a3.49,3.49,0,0,0,1.58-2.73V119C175.69,118,175,117.58,174.11,118.09Z" style="fill:#fff"></path><path d="M174.43,119.36v108a2.28,2.28,0,0,1-1,1.64L57,296.28v-108a2.28,2.28,0,0,1,.95-1.64l116.53-67.25m.39-1.49a1.45,1.45,0,0,0-.71.22L57.27,185.52a3.48,3.48,0,0,0-1.58,2.73V296.64c0,.72.36,1.13.87,1.13a1.42,1.42,0,0,0,.71-.22l116.84-67.43a3.49,3.49,0,0,0,1.58-2.73V119c0-.72-.36-1.13-.87-1.13Z" style="fill:#e0e0e0"></path></g><g id="freepik--agile--inject-21"><polygon points="152.2 216.09 152.2 191.56 159.07 195.53 159.07 220.06 152.2 216.09" style="fill:#BA68C8"></polygon><polygon points="152.2 216.09 152.2 191.56 159.07 195.53 159.07 220.06 152.2 216.09" style="opacity:0.15"></polygon><polygon points="67.44 256.36 67.44 268.2 74.31 272.17 74.31 260.32 67.44 256.36" style="fill:#BA68C8"></polygon><g style="opacity:0.15"><polygon points="67.44 256.36 67.44 268.2 74.31 272.17 74.31 260.32 67.44 256.36"></polygon></g><path d="M159.07,201.87l-53.25,30.76c-5.2,3-9.48,2-11.78-2.27A11.84,11.84,0,0,0,99,228.67l53.24-30.76Z" style="fill:#BA68C8"></path><path d="M159.07,201.87l-53.25,30.76c-5.2,3-9.48,2-11.78-2.27A11.84,11.84,0,0,0,99,228.67l53.24-30.76Z" style="fill:#fff;opacity:0.30000000000000004"></path><path d="M168.91,202.09l-9.84-6.56v6.34l-53.25,30.76c-5.2,3-9.48,2-11.78-2.27h0a14.69,14.69,0,0,1-1.38-3.91,19.74,19.74,0,0,1-.07-7.35c2.47-14.29,17.4-32.42,32-32.83l9.56-9.81a13.22,13.22,0,0,0-6.83-1.83c-24.63,0-44.89,29.13-44.89,48.41,0,10.55,3.52,18,9.08,21.18h0c4.59,2.64,10.58,2.39,17.12-1.39l50.41-29.11v6.34Z" style="fill:#BA68C8"></path><path d="M91.53,244.22l-6.86-4c-5.56-3.2-9.07-10.63-9.07-21.18,0-19.29,20.26-48.42,44.89-48.42a13.44,13.44,0,0,1,6.82,1.84l6.87,4a13.22,13.22,0,0,0-6.83-1.83c-24.63,0-44.89,29.13-44.89,48.41,0,10.55,3.52,18,9.08,21.18Z" style="fill:#BA68C8"></path><path d="M91.53,244.22l-6.86-4c-5.56-3.2-9.07-10.63-9.07-21.18,0-19.29,20.26-48.42,44.89-48.42a13.44,13.44,0,0,1,6.82,1.84l6.87,4a13.22,13.22,0,0,0-6.83-1.83c-24.63,0-44.89,29.13-44.89,48.41,0,10.55,3.52,18,9.08,21.18Z" style="fill:#fff;opacity:0.30000000000000004"></path><path d="M67.44,256.36l39.8-23h0c.43-.25.88-.54,1.33-.85,9.06-6.3,17.05-22.06,17.85-35.22.28-4.73-.39-8.47-1.8-11h.5c5.37-.09,8.74,5.45,8.16,15-.8,13.16-8.79,28.93-17.85,35.22-.45.32-.89.6-1.33.86h0l-39.79,23Z" style="fill:#BA68C8"></path><path d="M67.44,256.36l39.8-23h0c.43-.25.88-.54,1.33-.85,9.06-6.3,17.05-22.06,17.85-35.22.28-4.73-.39-8.47-1.8-11h.5c5.37-.09,8.74,5.45,8.16,15-.8,13.16-8.79,28.93-17.85,35.22-.45.32-.89.6-1.33.86h0l-39.79,23Z" style="fill:#fff;opacity:0.30000000000000004"></path><path d="M134.18,176.46l-9.56,9.81h.5c5.37-.09,8.74,5.45,8.16,15-.8,13.16-8.79,28.93-17.85,35.22-.45.32-.89.6-1.33.86h0l-39.79,23v11.84l42.57-24.58c14.46-8.34,26.18-30.74,26.18-50C143.06,187.12,139.62,179.71,134.18,176.46Z" style="fill:#BA68C8"></path><path d="M108.57,232.53c8.84-6.66,15-19.51,17.14-30.2l.43-2.5.28-2.52-.2,2.53-.35,2.52c-1.91,10.75-8.17,23.81-17.3,30.17Z" style="fill:#BA68C8"></path><path d="M116.88,247.58c14-8.69,23.09-26.77,25.57-42.72a52.6,52.6,0,0,0,.61-7.3,52.79,52.79,0,0,1-.44,7.32c-2.24,16-11.44,34.32-25.74,42.7Z" style="fill:#BA68C8"></path><path d="M116.88,247.58c14-8.69,23.09-26.77,25.57-42.72a52.6,52.6,0,0,0,.61-7.3,52.79,52.79,0,0,1-.44,7.32c-2.24,16-11.44,34.32-25.74,42.7Z" style="opacity:0.15"></path></g><path d="M55,153.69c.15-.09.25-.1.33,0a.75.75,0,0,1,.18.35l3.31,9.47a.41.41,0,0,1,0,.12.88.88,0,0,1-.1.4.62.62,0,0,1-.26.29l-1,.56c-.18.11-.31.13-.38.07a.51.51,0,0,1-.15-.21L56.41,163l-4.26,2.47-.59,2.33a1.49,1.49,0,0,1-.14.38,1,1,0,0,1-.38.38l-1,.56a.22.22,0,0,1-.26,0,.33.33,0,0,1-.11-.28.51.51,0,0,1,0-.13L53,155.45a3.44,3.44,0,0,1,.19-.57.83.83,0,0,1,.33-.34Zm.74,7.47-1.48-4.27-1.49,6Z" style="fill:#BA68C8"></path><path d="M59.56,155.73a9,9,0,0,1,.29-2.14,8.35,8.35,0,0,1,.79-2,8,8,0,0,1,1.26-1.71,7.7,7.7,0,0,1,1.75-1.37,4.69,4.69,0,0,1,1.93-.71,2,2,0,0,1,1.22.27,1.62,1.62,0,0,1,.63.81,2.77,2.77,0,0,1,.21.89.83.83,0,0,1-.36.7l-1.09.63a.25.25,0,0,1-.24,0,.29.29,0,0,1-.13-.14s-.06-.11-.14-.23a.86.86,0,0,0-.37-.29,1.26,1.26,0,0,0-.65-.09,2.37,2.37,0,0,0-1,.37A4.27,4.27,0,0,0,62,152.44a5,5,0,0,0-.65,2.33c0,.46,0,1,0,1.48s0,1,0,1.45c0,1,.24,1.58.65,1.8a1.73,1.73,0,0,0,1.62-.26,5.61,5.61,0,0,0,.92-.68,4.06,4.06,0,0,0,1.19-2,5.54,5.54,0,0,0,.17-1.4V155l-1.65.95a.21.21,0,0,1-.25,0,.32.32,0,0,1-.11-.28V154.4A.76.76,0,0,1,64,154a.69.69,0,0,1,.25-.3l3.11-1.79a.2.2,0,0,1,.25,0c.08.05.11.14.11.28v2a8.51,8.51,0,0,1-.26,2.13,8.11,8.11,0,0,1-2,3.78,8.08,8.08,0,0,1-1.79,1.41,4.74,4.74,0,0,1-1.78.66,1.73,1.73,0,0,1-1.26-.28,2.19,2.19,0,0,1-.76-1.12,5.64,5.64,0,0,1-.29-1.82c0-.22,0-.47,0-.74s0-.56,0-.84,0-.58,0-.85S59.55,156,59.56,155.73Z" style="fill:#BA68C8"></path><path d="M69.82,157.74a.23.23,0,0,1-.26,0,.35.35,0,0,1-.11-.28V145.84a.93.93,0,0,1,.11-.41.74.74,0,0,1,.26-.29l1.09-.63a.22.22,0,0,1,.26,0,.33.33,0,0,1,.11.28v11.62a.9.9,0,0,1-.11.41.68.68,0,0,1-.26.29Z" style="fill:#BA68C8"></path><path d="M79.66,149.81a.2.2,0,0,1,.25,0,.31.31,0,0,1,.11.28v1.27a.79.79,0,0,1-.11.41.66.66,0,0,1-.25.29l-5.92,3.42a.23.23,0,0,1-.25,0,.35.35,0,0,1-.11-.28V143.57a.89.89,0,0,1,.11-.4.67.67,0,0,1,.25-.29l1.1-.63a.23.23,0,0,1,.26,0,.34.34,0,0,1,.1.28v9.86Z" style="fill:#BA68C8"></path><path d="M87.61,145.22a.21.21,0,0,1,.26,0,.32.32,0,0,1,.1.28v1.27a.88.88,0,0,1-.1.41.75.75,0,0,1-.26.29l-5.93,3.42a.21.21,0,0,1-.25,0,.32.32,0,0,1-.11-.28V139a.76.76,0,0,1,.11-.4.69.69,0,0,1,.25-.3l5.82-3.36a.24.24,0,0,1,.26,0,.33.33,0,0,1,.11.28v1.28a.89.89,0,0,1-.11.4.62.62,0,0,1-.26.29l-4.36,2.52v2.86l4.06-2.34a.23.23,0,0,1,.26,0,.35.35,0,0,1,.11.28v1.28a.86.86,0,0,1-.11.4.71.71,0,0,1-.26.3l-4.06,2.34v3Z" style="fill:#BA68C8"></path></g></g><g id="freepik--Gears--inject-21"><g id="freepik--Gear--inject-21"><path d="M111.93,48.83h0a1.27,1.27,0,0,0-1.34.09l-2.79,1.74-.63,1.61a3,3,0,0,0,.72,3,14.38,14.38,0,0,1,1.24,1.52,1.9,1.9,0,0,0,2.58.59l6.49-4.05a1.29,1.29,0,0,1,1.32-.13Zm-10.2,22.91c-.84-5.09-4.13-7.67-8.46-7.38a12.29,12.29,0,0,1,.86,3c1.33,8.07-4,19.44-12,25.38a16.1,16.1,0,0,1-8.3,3.5c2.52,5.43,9.06,6,15.92.89C97.7,91.18,103.07,79.81,101.73,71.74Zm.55-34.43h0a1.65,1.65,0,0,0-.51-.2L96.93,36a2.65,2.65,0,0,0-2.76,1.21l-4.68,8.42a3.72,3.72,0,0,1-1,1.12h0a3.82,3.82,0,0,1-.78.5L89,51.88a1.66,1.66,0,0,0,2.28,1,25.5,25.5,0,0,1,3-.92,4.92,4.92,0,0,0,1.75-.86,3.89,3.89,0,0,0,1-1.12l4.66-8.43a2.69,2.69,0,0,1,2.77-1.21l4.85,1.13a1.71,1.71,0,0,1,.48.18ZM87.64,119.16a1.26,1.26,0,0,1-.45-.72l-1.59-5.33a1.65,1.65,0,0,0-2.28-1,21.37,21.37,0,0,1-3,.92,3.88,3.88,0,0,0-.95.37l.21.69a1.31,1.31,0,0,0,.62.82v0Zm-8.4-77.83a1.24,1.24,0,0,0-.53-.15,1.45,1.45,0,0,0-.9.33L70.46,47a2.18,2.18,0,0,0-.28.25c-.08.07-.13.14-.2.21a4.5,4.5,0,0,0-.65,1.11,2.14,2.14,0,0,1-.09.27h0a3.23,3.23,0,0,0-.2,1.14l.35,6.75A5.19,5.19,0,0,1,68.23,60c-1.21,1.38-2.35,2.83-3.43,4.32a3.63,3.63,0,0,1-1.61,1.18,4.12,4.12,0,0,1-.64.18,1.76,1.76,0,0,1-.31,0,1.19,1.19,0,0,1-.42,0l-4.67-.27H57a1.69,1.69,0,0,0-.38,0,1.37,1.37,0,0,0-.34.07h0a2,2,0,0,0-.39.14,4.18,4.18,0,0,0-.68.4,2.88,2.88,0,0,0-.76.92l-4.51,9.55a1.79,1.79,0,0,0,.72,2.31l5.16,3a2.3,2.3,0,0,1,.1,1.32A40.13,40.13,0,0,0,55,87.71a5.7,5.7,0,0,1-1.6,3.1l-.08.06-6.45,5.62a1.67,1.67,0,0,0-.31.34s0,0,0,.06a1.84,1.84,0,0,0-.26.4,3.61,3.61,0,0,0-.51,2.29l1.14,6.86a1.34,1.34,0,0,0,.55.93l7.58,4.37a1.33,1.33,0,0,1-.52-.91L53.41,104a3.11,3.11,0,0,1,.09-1.31,3.64,3.64,0,0,1,1-1.77L61,95.26,61,95.2a5.81,5.81,0,0,0,1.62-3.09,39.82,39.82,0,0,1,.86-4.57A2.28,2.28,0,0,0,62.26,85l-3.77-1.6a1.81,1.81,0,0,1-1-2.44l4.51-9.54a2.47,2.47,0,0,1,.76-.92,3,3,0,0,1,1.94-.66l4.69.27a3.12,3.12,0,0,0,1.35-.24,3.66,3.66,0,0,0,1.62-1.18c1.07-1.49,2.22-2.94,3.42-4.31A5.19,5.19,0,0,0,77,61.11l-.36-6.74a3.06,3.06,0,0,1,.19-1.16,3.83,3.83,0,0,1,1.24-1.83l7.33-5.48a1.29,1.29,0,0,1,1.45-.18ZM67.48,112.72a3.07,3.07,0,0,0-.73-3,12.36,12.36,0,0,1-1.23-1.52,1.91,1.91,0,0,0-2.58-.6l-3.7,2.32-2.76,7a1.54,1.54,0,0,0,.63,1.93l0,0,7.63,4.4a1.55,1.55,0,0,1-.63-1.94Z" style="fill:#e6e6e6"></path><path d="M111.93,48.83h0a1.27,1.27,0,0,0-1.34.09l-2.79,1.74-.63,1.61a3,3,0,0,0,.72,3,14.38,14.38,0,0,1,1.24,1.52,1.9,1.9,0,0,0,2.58.59l6.49-4.05a1.29,1.29,0,0,1,1.32-.13Zm-10.2,22.91c-.84-5.09-4.13-7.67-8.46-7.38a12.29,12.29,0,0,1,.86,3c1.33,8.07-4,19.44-12,25.38a16.1,16.1,0,0,1-8.3,3.5c2.52,5.43,9.06,6,15.92.89C97.7,91.18,103.07,79.81,101.73,71.74Zm.55-34.43h0a1.65,1.65,0,0,0-.51-.2L96.93,36a2.65,2.65,0,0,0-2.76,1.21l-4.68,8.42a3.72,3.72,0,0,1-1,1.12h0a3.82,3.82,0,0,1-.78.5L89,51.88a1.66,1.66,0,0,0,2.28,1,25.5,25.5,0,0,1,3-.92,4.92,4.92,0,0,0,1.75-.86,3.89,3.89,0,0,0,1-1.12l4.66-8.43a2.69,2.69,0,0,1,2.77-1.21l4.85,1.13a1.71,1.71,0,0,1,.48.18ZM87.64,119.16a1.26,1.26,0,0,1-.45-.72l-1.59-5.33a1.65,1.65,0,0,0-2.28-1,21.37,21.37,0,0,1-3,.92,3.88,3.88,0,0,0-.95.37l.21.69a1.31,1.31,0,0,0,.62.82v0Zm-8.4-77.83a1.24,1.24,0,0,0-.53-.15,1.45,1.45,0,0,0-.9.33L70.46,47a2.18,2.18,0,0,0-.28.25c-.08.07-.13.14-.2.21a4.5,4.5,0,0,0-.65,1.11,2.14,2.14,0,0,1-.09.27h0a3.23,3.23,0,0,0-.2,1.14l.35,6.75A5.19,5.19,0,0,1,68.23,60c-1.21,1.38-2.35,2.83-3.43,4.32a3.63,3.63,0,0,1-1.61,1.18,4.12,4.12,0,0,1-.64.18,1.76,1.76,0,0,1-.31,0,1.19,1.19,0,0,1-.42,0l-4.67-.27H57a1.69,1.69,0,0,0-.38,0,1.37,1.37,0,0,0-.34.07h0a2,2,0,0,0-.39.14,4.18,4.18,0,0,0-.68.4,2.88,2.88,0,0,0-.76.92l-4.51,9.55a1.79,1.79,0,0,0,.72,2.31l5.16,3a2.3,2.3,0,0,1,.1,1.32A40.13,40.13,0,0,0,55,87.71a5.7,5.7,0,0,1-1.6,3.1l-.08.06-6.45,5.62a1.67,1.67,0,0,0-.31.34s0,0,0,.06a1.84,1.84,0,0,0-.26.4,3.61,3.61,0,0,0-.51,2.29l1.14,6.86a1.34,1.34,0,0,0,.55.93l7.58,4.37a1.33,1.33,0,0,1-.52-.91L53.41,104a3.11,3.11,0,0,1,.09-1.31,3.64,3.64,0,0,1,1-1.77L61,95.26,61,95.2a5.81,5.81,0,0,0,1.62-3.09,39.82,39.82,0,0,1,.86-4.57A2.28,2.28,0,0,0,62.26,85l-3.77-1.6a1.81,1.81,0,0,1-1-2.44l4.51-9.54a2.47,2.47,0,0,1,.76-.92,3,3,0,0,1,1.94-.66l4.69.27a3.12,3.12,0,0,0,1.35-.24,3.66,3.66,0,0,0,1.62-1.18c1.07-1.49,2.22-2.94,3.42-4.31A5.19,5.19,0,0,0,77,61.11l-.36-6.74a3.06,3.06,0,0,1,.19-1.16,3.83,3.83,0,0,1,1.24-1.83l7.33-5.48a1.29,1.29,0,0,1,1.45-.18ZM67.48,112.72a3.07,3.07,0,0,0-.73-3,12.36,12.36,0,0,1-1.23-1.52,1.91,1.91,0,0,0-2.58-.6l-3.7,2.32-2.76,7a1.54,1.54,0,0,0,.63,1.93l0,0,7.63,4.4a1.55,1.55,0,0,1-.63-1.94Z" style="opacity:0.1"></path><path d="M61,95.26l-6.43,5.63a3.64,3.64,0,0,0-1,1.77l-7.59-4.38a4.25,4.25,0,0,1,.39-1,1.84,1.84,0,0,1,.26-.4s0,0,0-.06a1.67,1.67,0,0,1,.31-.34l6.45-5.62Z" style="fill:#e0e0e0"></path><path d="M70.79,69.85a3.12,3.12,0,0,1-1.35.24l-4.69-.27a3,3,0,0,0-1.94.66l-7.61-4.4a4.18,4.18,0,0,1,.68-.4,2,2,0,0,1,.39-.14h0a1.37,1.37,0,0,1,.34-.07,1.69,1.69,0,0,1,.38,0h.12l4.67.27a1.19,1.19,0,0,0,.42,0l.31,0c.2,0,.41-.12.61-.19h0Z" style="fill:#e0e0e0"></path><path d="M119.52,53.2a1.29,1.29,0,0,0-1.32.13l-6.49,4.05a1.91,1.91,0,0,1-2.58-.6,12.31,12.31,0,0,0-1.24-1.51,3,3,0,0,1-.72-3l.63-1.59,2.79-1.74a1.3,1.3,0,0,1,1.34-.11h0Z" style="fill:#e0e0e0"></path><path d="M109.87,41.69a1.71,1.71,0,0,0-.48-.18l-4.85-1.13a2.69,2.69,0,0,0-2.77,1.21L97.11,50a3.89,3.89,0,0,1-1,1.12l-7.61-4.4a3.72,3.72,0,0,0,1-1.12l4.68-8.42A2.65,2.65,0,0,1,96.93,36l4.84,1.13a1.65,1.65,0,0,1,.51.2h0Z" style="fill:#e0e0e0"></path><path d="M86.86,45.72a1.29,1.29,0,0,0-1.45.18l-7.33,5.48a3.83,3.83,0,0,0-1.24,1.83l-7.6-4.38a2.14,2.14,0,0,0,.09-.27A4.5,4.5,0,0,1,70,47.45c.07-.07.12-.14.2-.21a2.18,2.18,0,0,1,.28-.25l7.35-5.48a1.45,1.45,0,0,1,.9-.33,1.24,1.24,0,0,1,.53.15Z" style="fill:#e0e0e0"></path><path d="M121.24,61l-1.13-6.86a1.16,1.16,0,0,0-1.91-.83l-6.49,4.05a1.89,1.89,0,0,1-2.58-.6,12.15,12.15,0,0,0-1.24-1.51,3.07,3.07,0,0,1-.72-3l3.39-8.61a1.58,1.58,0,0,0-1.17-2.17l-4.85-1.11a2.63,2.63,0,0,0-2.76,1.21L97.11,50a4.8,4.8,0,0,1-2.78,2,25.08,25.08,0,0,0-3,.92,1.66,1.66,0,0,1-2.28-1l-1.58-5.33a1.22,1.22,0,0,0-2-.65l-7.35,5.48a3.9,3.9,0,0,0-1.41,3L77,61.11a5.24,5.24,0,0,1-1.17,3.25Q74,66.42,72.41,68.67a3.82,3.82,0,0,1-3,1.43l-4.67-.28a3,3,0,0,0-2.71,1.57l-4.51,9.55a1.79,1.79,0,0,0,1,2.43L62.25,85a2.26,2.26,0,0,1,1.27,2.55,42.45,42.45,0,0,0-.87,4.56A5.65,5.65,0,0,1,61,95.2l-6.51,5.69A3.72,3.72,0,0,0,53.41,104l1.13,6.86a1.16,1.16,0,0,0,1.91.83l6.49-4a1.89,1.89,0,0,1,2.58.6,13.12,13.12,0,0,0,1.24,1.51,3.05,3.05,0,0,1,.72,3l-3.39,8.61a1.58,1.58,0,0,0,1.18,2.17l4.84,1.11a2.66,2.66,0,0,0,2.77-1.21L77.54,115a4.76,4.76,0,0,1,2.78-2,24.54,24.54,0,0,0,3-.92,1.66,1.66,0,0,1,2.28,1l1.58,5.33a1.23,1.23,0,0,0,2,.65l7.34-5.48a4,4,0,0,0,1.42-3l-.36-6.74a5.3,5.3,0,0,1,1.17-3.25,54.92,54.92,0,0,0,3.43-4.31,3.82,3.82,0,0,1,3-1.43l4.68.28a3,3,0,0,0,2.7-1.57l4.51-9.55a1.81,1.81,0,0,0-1-2.44L112.4,80a2.26,2.26,0,0,1-1.27-2.55,42.16,42.16,0,0,0,.87-4.57,5.62,5.62,0,0,1,1.61-3.09l6.52-5.69A3.74,3.74,0,0,0,121.24,61Zm-31.5,36.1c-8,5.94-15.49,4.21-16.82-3.87s4-19.44,12-25.38,15.49-4.21,16.82,3.87S97.7,91.18,89.74,97.12Z" style="fill:#f5f5f5"></path><path d="M111.62,93.25a2,2,0,0,1-1.66.89l-4.68-.28a4.82,4.82,0,0,0-3.87,1.86c-1.07,1.48-2.2,2.9-3.37,4.23a4.25,4.25,0,0,0-.53.74,6.13,6.13,0,0,0-.9,3.24l.36,6.75a2.79,2.79,0,0,1-.42,1.42,2.37,2.37,0,0,1-.59.68l-7.34,5.49a.45.45,0,0,1-.3.12.39.39,0,0,1-.14-.25l-1.58-5.32a2.66,2.66,0,0,0-1.36-1.64A2.86,2.86,0,0,0,83,111.1a22.41,22.41,0,0,1-2.87.89,5.81,5.81,0,0,0-3.4,2.4l0,.09L72,122.89h0a1.65,1.65,0,0,1-1.64.71l-4.84-1.12a.65.65,0,0,1-.45-.3.57.57,0,0,1,0-.48l3.39-8.61A4.08,4.08,0,0,0,67.5,109a12,12,0,0,1-1.14-1.4,2.93,2.93,0,0,0-4-.88l-6.49,4c-.15.1-.25.11-.27.1a.61.61,0,0,1-.08-.22l-1.13-6.86a2.69,2.69,0,0,1,.4-1.65,2,2,0,0,1,.38-.49L61.72,96a5.8,5.8,0,0,0,1.08-1.34,6.72,6.72,0,0,0,.88-2.39,39.12,39.12,0,0,1,.84-4.46A3.3,3.3,0,0,0,62.66,84L58.9,82.43a.83.83,0,0,1-.46-.46.76.76,0,0,1,0-.59L63,71.83l.05-.09a2,2,0,0,1,1.66-.9l4.68.28a4.8,4.8,0,0,0,3.88-1.85c1.06-1.48,2.19-2.9,3.36-4.23a4.25,4.25,0,0,0,.53-.74,6.13,6.13,0,0,0,.9-3.24l-.36-6.75a2.79,2.79,0,0,1,.42-1.42,2.76,2.76,0,0,1,.59-.69L86,46.72a.45.45,0,0,1,.3-.12.39.39,0,0,1,.14.25l1.58,5.32a2.66,2.66,0,0,0,1.36,1.64,2.86,2.86,0,0,0,2.28.08A21.93,21.93,0,0,1,94.56,53,5.81,5.81,0,0,0,98,50.6l.05-.09,4.67-8.41h0a1.63,1.63,0,0,1,1.63-.71l4.84,1.12a.62.62,0,0,1,.45.3.57.57,0,0,1,0,.48l-3.38,8.61a4,4,0,0,0,.93,4.08,12.77,12.77,0,0,1,1.14,1.39,2.93,2.93,0,0,0,4,.89l6.49-4.06a.6.6,0,0,1,.27-.1.91.91,0,0,1,.08.23l1.13,6.86a2.76,2.76,0,0,1-.39,1.65,2,2,0,0,1-.39.48L112.93,69a5.53,5.53,0,0,0-1.07,1.34,6.36,6.36,0,0,0-.88,2.39,39.62,39.62,0,0,1-.85,4.46A3.31,3.31,0,0,0,112,81l3.77,1.61a.84.84,0,0,1,.45.46.76.76,0,0,1,0,.59l-4.51,9.55a.41.41,0,0,1,0,.09M76,76.42c-3.45,5.82-5,12-4.14,17,.62,3.76,2.55,6.47,5.45,7.63,3.65,1.47,8.39.34,13-3.1a32.23,32.23,0,0,0,8.26-9.38c3.45-5.82,5-12,4.14-17-.62-3.76-2.55-6.47-5.45-7.63-3.65-1.47-8.39-.34-13,3.1A32.38,32.38,0,0,0,76,76.42m36.47,17.35.09-.17,4.51-9.55a1.81,1.81,0,0,0-1-2.44L112.4,80a2.26,2.26,0,0,1-1.27-2.55,42.16,42.16,0,0,0,.87-4.57,5.7,5.7,0,0,1,.74-2,4.9,4.9,0,0,1,.87-1.09l6.52-5.69a3.15,3.15,0,0,0,.59-.74,3.71,3.71,0,0,0,.52-2.34l-1.13-6.86a1.16,1.16,0,0,0-1.91-.83l-6.49,4.05a1.89,1.89,0,0,1-2.58-.6,12.15,12.15,0,0,0-1.24-1.51,3.07,3.07,0,0,1-.72-3l3.39-8.61a1.58,1.58,0,0,0-1.17-2.17l-4.85-1.11a2.66,2.66,0,0,0-2.74,1.16l0,.05L97.11,50l0,.06A4.89,4.89,0,0,1,94.33,52a25.08,25.08,0,0,0-3,.92,1.66,1.66,0,0,1-2.28-1l-1.58-5.33a1.22,1.22,0,0,0-2-.65l-7.35,5.48a3.32,3.32,0,0,0-.85,1,3.69,3.69,0,0,0-.56,2L77,61.11a5.22,5.22,0,0,1-.75,2.66,3.87,3.87,0,0,1-.42.59Q74,66.42,72.41,68.67a3.82,3.82,0,0,1-3,1.43l-4.67-.28a3,3,0,0,0-2.62,1.4l-.09.17-4.51,9.55a1.79,1.79,0,0,0,1,2.43L62.25,85a2.26,2.26,0,0,1,1.27,2.55,42.16,42.16,0,0,0-.87,4.57,5.51,5.51,0,0,1-.74,2A4.63,4.63,0,0,1,61,95.2l-6.51,5.69a3.08,3.08,0,0,0-.6.73,3.74,3.74,0,0,0-.52,2.35l1.13,6.86a1.16,1.16,0,0,0,1.91.83l6.49-4a1.89,1.89,0,0,1,2.58.6,13.12,13.12,0,0,0,1.24,1.51,3.05,3.05,0,0,1,.72,3l-3.39,8.61a1.58,1.58,0,0,0,1.18,2.17l4.84,1.11a2.68,2.68,0,0,0,2.74-1.16l0,0L77.54,115a.21.21,0,0,1,0-.06A4.83,4.83,0,0,1,80.32,113a24.54,24.54,0,0,0,3-.92,1.66,1.66,0,0,1,2.28,1l1.58,5.33a1.23,1.23,0,0,0,2,.65l7.34-5.48a3.32,3.32,0,0,0,.85-1,3.81,3.81,0,0,0,.57-2l-.36-6.74a5.22,5.22,0,0,1,.75-2.66,3.87,3.87,0,0,1,.42-.59,54.92,54.92,0,0,0,3.43-4.31,3.82,3.82,0,0,1,3-1.43l4.68.28a3,3,0,0,0,2.61-1.4ZM76.93,76.94a31.29,31.29,0,0,1,8-9.07c8-5.94,15.49-4.21,16.82,3.87.81,4.87-.83,11-4,16.31a31.29,31.29,0,0,1-8,9.07c-8,5.94-15.49,4.21-16.82-3.87-.81-4.87.83-11,4-16.31Z" style="fill:#ebebeb"></path></g><g id="freepik--gear--inject-21"><path d="M166.78,42.85h0a.71.71,0,0,0-.75,0l-1.56,1-.35.9a1.69,1.69,0,0,0,.4,1.68,7.37,7.37,0,0,1,.7.85,1.06,1.06,0,0,0,1.44.33l3.64-2.27a.72.72,0,0,1,.74-.07ZM161.07,55.7c-.48-2.86-2.32-4.3-4.75-4.14a7.26,7.26,0,0,1,.49,1.68c.74,4.52-2.28,10.9-6.74,14.23a9.1,9.1,0,0,1-4.65,2c1.41,3,5.08,3.37,8.92.5C158.8,66.6,161.81,60.23,161.07,55.7Zm.3-19.3h0a.78.78,0,0,0-.28-.11l-2.71-.63a1.48,1.48,0,0,0-1.55.68l-2.62,4.72a2.25,2.25,0,0,1-.58.62h0a2,2,0,0,1-.44.28l.77,2.61a.93.93,0,0,0,1.28.58,11.82,11.82,0,0,1,1.68-.51,2.74,2.74,0,0,0,1-.49,2.06,2.06,0,0,0,.59-.63l2.61-4.72a1.49,1.49,0,0,1,1.55-.68l2.72.63a1.08,1.08,0,0,1,.27.1Zm-8.21,45.89a.84.84,0,0,1-.25-.41l-.88-3a.92.92,0,0,0-1.28-.58,11.56,11.56,0,0,1-1.69.51,2.54,2.54,0,0,0-.53.21l.12.39a.76.76,0,0,0,.34.46h0Zm-4.7-43.64a.64.64,0,0,0-.3-.08.77.77,0,0,0-.5.18l-4.12,3.07a.75.75,0,0,0-.16.15.38.38,0,0,0-.11.11,2.61,2.61,0,0,0-.37.63,1.31,1.31,0,0,1-.05.15h0a1.9,1.9,0,0,0-.12.64l.2,3.78a2.93,2.93,0,0,1-.65,1.82c-.68.77-1.32,1.58-1.93,2.42a2,2,0,0,1-.9.66,1.61,1.61,0,0,1-.36.1l-.17,0a1,1,0,0,1-.24,0l-2.62-.16H136a.86.86,0,0,0-.22,0,.72.72,0,0,0-.19,0h0l-.22.08a2.14,2.14,0,0,0-.38.23,1.4,1.4,0,0,0-.42.52L132,58.39a1,1,0,0,0,.4,1.3l2.89,1.67a1.25,1.25,0,0,1,.06.74,24.3,24.3,0,0,0-.49,2.55,3.19,3.19,0,0,1-.9,1.74l0,0-3.62,3.16a1,1,0,0,0-.17.18l0,0A1.07,1.07,0,0,0,130,70a2,2,0,0,0-.28,1.29l.64,3.84a.8.8,0,0,0,.3.53l4.25,2.44a.72.72,0,0,1-.29-.51L134,73.77A1.72,1.72,0,0,1,134,73a2,2,0,0,1,.57-1l3.61-3.16,0,0a3.21,3.21,0,0,0,.91-1.73,21.73,21.73,0,0,1,.49-2.56,1.3,1.3,0,0,0-.71-1.44l-2.11-.9a1,1,0,0,1-.54-1.36l2.53-5.35a1.34,1.34,0,0,1,.43-.52,1.69,1.69,0,0,1,1.09-.37l2.62.16a1.89,1.89,0,0,0,.76-.14,2.07,2.07,0,0,0,.91-.66c.6-.84,1.25-1.65,1.92-2.42a2.94,2.94,0,0,0,.66-1.82L147,46a1.69,1.69,0,0,1,.1-.65,2.18,2.18,0,0,1,.7-1l4.11-3.07a.73.73,0,0,1,.81-.1Zm-6.59,40a1.75,1.75,0,0,0-.41-1.68,6.4,6.4,0,0,1-.69-.85,1.08,1.08,0,0,0-1.45-.33l-2.08,1.29L135.7,81a.86.86,0,0,0,.35,1.08h0l4.28,2.47A.87.87,0,0,1,140,83.5Z" style="fill:#e6e6e6"></path><path d="M166.78,42.85h0a.71.71,0,0,0-.75,0l-1.56,1-.35.9a1.69,1.69,0,0,0,.4,1.68,7.37,7.37,0,0,1,.7.85,1.06,1.06,0,0,0,1.44.33l3.64-2.27a.72.72,0,0,1,.74-.07ZM161.07,55.7c-.48-2.86-2.32-4.3-4.75-4.14a7.26,7.26,0,0,1,.49,1.68c.74,4.52-2.28,10.9-6.74,14.23a9.1,9.1,0,0,1-4.65,2c1.41,3,5.08,3.37,8.92.5C158.8,66.6,161.81,60.23,161.07,55.7Zm.3-19.3h0a.78.78,0,0,0-.28-.11l-2.71-.63a1.48,1.48,0,0,0-1.55.68l-2.62,4.72a2.25,2.25,0,0,1-.58.62h0a2,2,0,0,1-.44.28l.77,2.61a.93.93,0,0,0,1.28.58,11.82,11.82,0,0,1,1.68-.51,2.74,2.74,0,0,0,1-.49,2.06,2.06,0,0,0,.59-.63l2.61-4.72a1.49,1.49,0,0,1,1.55-.68l2.72.63a1.08,1.08,0,0,1,.27.1Zm-8.21,45.89a.84.84,0,0,1-.25-.41l-.88-3a.92.92,0,0,0-1.28-.58,11.56,11.56,0,0,1-1.69.51,2.54,2.54,0,0,0-.53.21l.12.39a.76.76,0,0,0,.34.46h0Zm-4.7-43.64a.64.64,0,0,0-.3-.08.77.77,0,0,0-.5.18l-4.12,3.07a.75.75,0,0,0-.16.15.38.38,0,0,0-.11.11,2.61,2.61,0,0,0-.37.63,1.31,1.31,0,0,1-.05.15h0a1.9,1.9,0,0,0-.12.64l.2,3.78a2.93,2.93,0,0,1-.65,1.82c-.68.77-1.32,1.58-1.93,2.42a2,2,0,0,1-.9.66,1.61,1.61,0,0,1-.36.1l-.17,0a1,1,0,0,1-.24,0l-2.62-.16H136a.86.86,0,0,0-.22,0,.72.72,0,0,0-.19,0h0l-.22.08a2.14,2.14,0,0,0-.38.23,1.4,1.4,0,0,0-.42.52L132,58.39a1,1,0,0,0,.4,1.3l2.89,1.67a1.25,1.25,0,0,1,.06.74,24.3,24.3,0,0,0-.49,2.55,3.19,3.19,0,0,1-.9,1.74l0,0-3.62,3.16a1,1,0,0,0-.17.18l0,0A1.07,1.07,0,0,0,130,70a2,2,0,0,0-.28,1.29l.64,3.84a.8.8,0,0,0,.3.53l4.25,2.44a.72.72,0,0,1-.29-.51L134,73.77A1.72,1.72,0,0,1,134,73a2,2,0,0,1,.57-1l3.61-3.16,0,0a3.21,3.21,0,0,0,.91-1.73,21.73,21.73,0,0,1,.49-2.56,1.3,1.3,0,0,0-.71-1.44l-2.11-.9a1,1,0,0,1-.54-1.36l2.53-5.35a1.34,1.34,0,0,1,.43-.52,1.69,1.69,0,0,1,1.09-.37l2.62.16a1.89,1.89,0,0,0,.76-.14,2.07,2.07,0,0,0,.91-.66c.6-.84,1.25-1.65,1.92-2.42a2.94,2.94,0,0,0,.66-1.82L147,46a1.69,1.69,0,0,1,.1-.65,2.18,2.18,0,0,1,.7-1l4.11-3.07a.73.73,0,0,1,.81-.1Zm-6.59,40a1.75,1.75,0,0,0-.41-1.68,6.4,6.4,0,0,1-.69-.85,1.08,1.08,0,0,0-1.45-.33l-2.08,1.29L135.7,81a.86.86,0,0,0,.35,1.08h0l4.28,2.47A.87.87,0,0,1,140,83.5Z" style="opacity:0.1"></path><path d="M138.21,68.88,134.6,72a2,2,0,0,0-.57,1l-4.26-2.45A2.72,2.72,0,0,1,130,70a1.07,1.07,0,0,1,.15-.22l0,0a1,1,0,0,1,.17-.18L134,66.42Z" style="fill:#e0e0e0"></path><path d="M143.72,54.64a1.89,1.89,0,0,1-.76.14l-2.62-.16a1.69,1.69,0,0,0-1.09.37L135,52.53a2.14,2.14,0,0,1,.38-.23l.22-.08h0a.72.72,0,0,1,.19,0,.86.86,0,0,1,.22,0h.06l2.62.16a1,1,0,0,0,.24,0l.17,0,.34-.11h0Z" style="fill:#e0e0e0"></path><path d="M171,45.31a.7.7,0,0,0-.74.07l-3.64,2.27a1.05,1.05,0,0,1-1.44-.34,8.2,8.2,0,0,0-.7-.84,1.7,1.7,0,0,1-.4-1.68l.35-.9,1.56-1a.71.71,0,0,1,.75-.06h0Z" style="fill:#e0e0e0"></path><path d="M165.63,38.85a1.08,1.08,0,0,0-.27-.1l-2.72-.63a1.49,1.49,0,0,0-1.55.68l-2.61,4.72a2.06,2.06,0,0,1-.59.63l-4.26-2.47a2.25,2.25,0,0,0,.58-.62l2.62-4.72a1.48,1.48,0,0,1,1.55-.68l2.71.63a.78.78,0,0,1,.28.11h0Z" style="fill:#e0e0e0"></path><path d="M152.73,41.11a.73.73,0,0,0-.81.1l-4.11,3.07a2.18,2.18,0,0,0-.7,1l-4.26-2.45a1.31,1.31,0,0,0,.05-.15,2.61,2.61,0,0,1,.37-.63.38.38,0,0,1,.11-.11.75.75,0,0,1,.16-.15l4.12-3.07a.77.77,0,0,1,.5-.18.64.64,0,0,1,.3.08Z" style="fill:#e0e0e0"></path><path d="M172,49.69l-.64-3.84a.65.65,0,0,0-1.07-.47l-3.64,2.27a1.05,1.05,0,0,1-1.44-.34,8.2,8.2,0,0,0-.7-.84,1.72,1.72,0,0,1-.4-1.68L166,40a.88.88,0,0,0-.66-1.21l-2.72-.63a1.51,1.51,0,0,0-1.55.68l-2.61,4.72a2.72,2.72,0,0,1-1.56,1.11,13,13,0,0,0-1.69.52.93.93,0,0,1-1.28-.59l-.88-3a.69.69,0,0,0-1.15-.37l-4.12,3.08A2.19,2.19,0,0,0,147,46l.2,3.78a2.91,2.91,0,0,1-.66,1.82A30,30,0,0,0,144.63,54a2.15,2.15,0,0,1-1.67.8l-2.62-.16a1.71,1.71,0,0,0-1.52.88l-2.53,5.35a1,1,0,0,0,.54,1.37l2.1.91a1.27,1.27,0,0,1,.71,1.43,23.46,23.46,0,0,0-.48,2.56,3.16,3.16,0,0,1-.9,1.73L134.6,72a2.08,2.08,0,0,0-.62,1.73l.63,3.84a.65.65,0,0,0,1.07.47l3.64-2.27a1.08,1.08,0,0,1,1.45.33,6.4,6.4,0,0,0,.69.85,1.72,1.72,0,0,1,.4,1.68L140,83.5a.89.89,0,0,0,.66,1.21l2.72.62a1.48,1.48,0,0,0,1.55-.67l2.62-4.72a2.62,2.62,0,0,1,1.56-1.11,14.63,14.63,0,0,0,1.68-.52.93.93,0,0,1,1.28.58l.88,3a.68.68,0,0,0,1.15.36l4.12-3.07A2.19,2.19,0,0,0,159,77.5l-.2-3.78a2.88,2.88,0,0,1,.66-1.82,30,30,0,0,0,1.92-2.42,2.12,2.12,0,0,1,1.67-.8l2.62.16a1.7,1.7,0,0,0,1.52-.89l2.53-5.35a1,1,0,0,0-.53-1.36l-2.11-.91a1.27,1.27,0,0,1-.71-1.43,23.92,23.92,0,0,0,.48-2.56,3.21,3.21,0,0,1,.91-1.73l3.65-3.19A2.12,2.12,0,0,0,172,49.69ZM154.34,69.93c-4.46,3.33-8.68,2.36-9.43-2.17s2.27-10.9,6.73-14.23,8.68-2.36,9.43,2.17S158.8,66.6,154.34,69.93Z" style="fill:#f5f5f5"></path><path d="M166.31,67.58a.8.8,0,0,1-.61.33l-2.62-.16a3,3,0,0,0-2.48,1.19,29,29,0,0,1-1.87,2.34,3.28,3.28,0,0,0-.33.47,3.88,3.88,0,0,0-.55,2l.2,3.78a1.33,1.33,0,0,1-.19.6.92.92,0,0,1-.24.28l-3.9,2.91-.8-2.71A1.82,1.82,0,0,0,152,77.5a1.9,1.9,0,0,0-1.55-.06,12.22,12.22,0,0,1-1.57.48,3.6,3.6,0,0,0-2.12,1.51h0l0,0-2.62,4.72a.57.57,0,0,1-.53.22l-2.71-.62,1.89-4.8a2.63,2.63,0,0,0-.6-2.66,6.32,6.32,0,0,1-.61-.74,2,2,0,0,0-2.69-.59l-3.36,2.1-.58-3.5a1.13,1.13,0,0,1,.18-.69.59.59,0,0,1,.14-.19l3.65-3.19a3.24,3.24,0,0,0,.68-.84,4.12,4.12,0,0,0,.54-1.47,22.51,22.51,0,0,1,.46-2.46,2.22,2.22,0,0,0-1.24-2.51l-2.11-.9s-.06,0-.06-.06,0-.05,0-.06l2.53-5.35h0a.77.77,0,0,1,.62-.35l2.62.15a3,3,0,0,0,2.48-1.18c.59-.82,1.22-1.61,1.87-2.35a2.71,2.71,0,0,0,.33-.46,3.88,3.88,0,0,0,.55-2l-.2-3.78a1.3,1.3,0,0,1,.19-.6.92.92,0,0,1,.24-.28l3.9-2.92.8,2.72A1.84,1.84,0,0,0,154,46a2,2,0,0,0,1.55.06,12.81,12.81,0,0,1,1.57-.49A3.56,3.56,0,0,0,159.25,44h0l0,0,2.61-4.72a.57.57,0,0,1,.53-.22l2.71.62-1.88,4.8a2.61,2.61,0,0,0,.59,2.66,5.59,5.59,0,0,1,.61.74,2,2,0,0,0,2.69.59l3.36-2.1.58,3.5a1.2,1.2,0,0,1-.17.69,1,1,0,0,1-.15.19l-3.65,3.19a3.24,3.24,0,0,0-.68.84,4.06,4.06,0,0,0-.54,1.47,22.51,22.51,0,0,1-.46,2.46,2.17,2.17,0,0,0,1.24,2.5l2.11.91a.11.11,0,0,1,.07.06.07.07,0,0,1,0,.06l-2.53,5.35v0m-19.94-9.44c-2,3.34-2.84,6.9-2.37,9.77a5.59,5.59,0,0,0,3.27,4.55c2.16.87,4.94.22,7.63-1.79a18.21,18.21,0,0,0,4.71-5.36c2-3.33,2.85-6.89,2.37-9.76A5.58,5.58,0,0,0,158.71,51c-2.16-.87-4.94-.22-7.62,1.79a18.18,18.18,0,0,0-4.72,5.35m20.74,9.91,0-.1,2.53-5.35a1,1,0,0,0-.53-1.36l-2.11-.91a1.27,1.27,0,0,1-.71-1.43,23.92,23.92,0,0,0,.48-2.56,3.16,3.16,0,0,1,.42-1.12,2.34,2.34,0,0,1,.49-.61l3.65-3.19a1.75,1.75,0,0,0,.33-.42,2.08,2.08,0,0,0,.3-1.31l-.64-3.84a.65.65,0,0,0-1.07-.47l-3.64,2.27a1.05,1.05,0,0,1-1.44-.34,8.2,8.2,0,0,0-.7-.84,1.72,1.72,0,0,1-.4-1.68L166,40a.88.88,0,0,0-.66-1.21l-2.72-.63a1.49,1.49,0,0,0-1.53.65l0,0-2.61,4.72,0,0a2.69,2.69,0,0,1-1.54,1.08,13,13,0,0,0-1.69.52.93.93,0,0,1-1.28-.59l-.88-3a.69.69,0,0,0-1.15-.37l-4.12,3.08a2,2,0,0,0-.48.55A2.16,2.16,0,0,0,147,46l.2,3.78a3,3,0,0,1-.42,1.49,2.36,2.36,0,0,1-.24.33A30,30,0,0,0,144.63,54a2.15,2.15,0,0,1-1.67.8l-2.62-.16a1.7,1.7,0,0,0-1.47.79l-.05.09-2.53,5.35a1,1,0,0,0,.54,1.37l2.1.91a1.27,1.27,0,0,1,.71,1.43,23.46,23.46,0,0,0-.48,2.56,3,3,0,0,1-.42,1.12,2.54,2.54,0,0,1-.48.61L134.6,72a1.7,1.7,0,0,0-.33.41,2.05,2.05,0,0,0-.29,1.32l.63,3.84a.65.65,0,0,0,1.07.47l3.64-2.27a1.08,1.08,0,0,1,1.45.33,6.4,6.4,0,0,0,.69.85,1.72,1.72,0,0,1,.4,1.68L140,83.5a.89.89,0,0,0,.66,1.21l2.72.62a1.49,1.49,0,0,0,1.53-.65l0,0,2.62-4.72,0,0a2.63,2.63,0,0,1,1.54-1.08,14.63,14.63,0,0,0,1.68-.52.93.93,0,0,1,1.28.58l.88,3a.68.68,0,0,0,1.15.36l4.12-3.07a2,2,0,0,0,.48-.55A2.16,2.16,0,0,0,159,77.5l-.2-3.78a3,3,0,0,1,.42-1.5,3,3,0,0,1,.24-.32,30,30,0,0,0,1.92-2.42,2.12,2.12,0,0,1,1.67-.8l2.62.16a1.73,1.73,0,0,0,1.47-.79Zm-20-9.43a17.58,17.58,0,0,1,4.48-5.09c4.46-3.33,8.68-2.36,9.43,2.17.45,2.73-.47,6.14-2.25,9.14a17.58,17.58,0,0,1-4.48,5.09c-4.46,3.33-8.68,2.36-9.43-2.17-.45-2.73.47-6.14,2.25-9.14Z" style="fill:#ebebeb"></path></g></g><g id="freepik--magnifying-glass--inject-21"><g id="freepik--magnifying-glass--inject-21"><path d="M322.52,356.6c-21.81-12.6-57.19-12.6-79,0-6.35,3.66-10.85,8-13.5,12.58a20.39,20.39,0,0,0-2.87,10.23v14.71c0,8.26,5.45,16.51,16.36,22.81,21.82,12.6,57.2,12.6,79,0,10.9-6.3,16.36-14.55,16.36-22.81V379.39C338.88,371.14,333.43,362.89,322.52,356.6Zm-3.14,20.15c5.18,3,8.9,6.41,11,10-2.18,3.65-6,7.11-11,10-9.62,5.55-22.53,8.61-36.37,8.61s-26.75-3.06-36.37-8.61c-5.18-3-8.89-6.41-11-10,2.18-3.65,6-7.1,11-10,9.61-5.55,22.53-8.61,36.37-8.61S309.77,371.2,319.38,376.75Z" style="fill:#BA68C8"></path><path d="M295.76,425.53v-21a89.7,89.7,0,0,1-12.74.9c-.85,0-1.7,0-2.55,0v21A96.14,96.14,0,0,0,295.76,425.53Zm13.95-24.38a70.22,70.22,0,0,1-7.33,2.11v21.12c2.5-.53,4.95-1.17,7.33-1.92Z" style="fill:#fff;opacity:0.1"></path><path d="M227.15,379.47v14.65c0,8.26,5.45,16.51,16.36,22.81.42.24.85.47,1.28.7v-14.7c-.43-.24-.86-.47-1.27-.71C232.64,395.94,227.18,387.7,227.15,379.47Z" style="opacity:0.25"></path><path d="M319.39,362c-9.62-5.55-22.53-8.61-36.37-8.6s-26.76,3.05-36.37,8.6c-5.16,3-9,6.54-11.2,10.29a13.59,13.59,0,0,0,.17,14.44c2.18-3.65,6-7.1,11-10,9.61-5.55,22.53-8.61,36.37-8.61s26.75,3.06,36.36,8.61c5.18,3,8.9,6.41,11,10l.17-.27C335.47,378,331.28,368.9,319.39,362Z" style="fill:#BA68C8"></path><path d="M319.39,362c-9.62-5.55-22.53-8.61-36.37-8.6s-26.76,3.05-36.37,8.6c-5.16,3-9,6.54-11.2,10.29a13.59,13.59,0,0,0,.17,14.44c2.18-3.65,6-7.1,11-10,9.61-5.55,22.53-8.61,36.37-8.61s26.75,3.06,36.36,8.61c5.18,3,8.9,6.41,11,10l.17-.27C335.47,378,331.28,368.9,319.39,362Z" style="opacity:0.25"></path><path d="M319.37,368.87c-9.61-5.55-22.53-8.61-36.37-8.61s-26.75,3.06-36.36,8.61c-5.16,3-9,6.54-11.2,10.29a15.58,15.58,0,0,0-1.53,3.61h0a15.7,15.7,0,0,0,1.71,4c2.14,3.61,5.85,7,11,10,9.62,5.55,22.53,8.61,36.37,8.61s26.75-3.06,36.37-8.61c5-2.9,8.85-6.36,11-10l.17-.27a14.91,14.91,0,0,0,1.52-3.64C330.76,377.81,326.42,372.94,319.37,368.87Z" style="fill:#fff;opacity:0.30000000000000004"></path><path d="M322.52,356.6c-21.81-12.6-57.19-12.6-79,0s-21.81,33,0,45.62,57.2,12.59,79,0S344.34,369.2,322.52,356.6ZM283,353.43c13.84,0,26.75,3.05,36.37,8.6,11.89,6.87,16.08,16,11.2,24.47l-.17.27c-2.18,3.65-6,7.11-11,10-9.62,5.55-22.53,8.61-36.37,8.61s-26.75-3.06-36.37-8.61c-5.18-3-8.89-6.41-11-10a13.59,13.59,0,0,1-.17-14.44c2.17-3.75,6-7.3,11.2-10.29C256.26,356.48,269.18,353.43,283,353.43Z" style="fill:#BA68C8"></path><g style="opacity:0.30000000000000004"><path d="M322.52,356.6c-21.81-12.6-57.19-12.6-79,0s-21.81,33,0,45.62,57.2,12.59,79,0S344.34,369.2,322.52,356.6ZM283,353.43c13.84,0,26.75,3.05,36.37,8.6,11.89,6.87,16.08,16,11.2,24.47l-.17.27c-2.18,3.65-6,7.11-11,10-9.62,5.55-22.53,8.61-36.37,8.61s-26.75-3.06-36.37-8.61c-5.18-3-8.89-6.41-11-10a13.59,13.59,0,0,1-.17-14.44c2.17-3.75,6-7.3,11.2-10.29C256.26,356.48,269.18,353.43,283,353.43Z" style="fill:#fff"></path></g><g style="opacity:0.30000000000000004"><path d="M278.89,411.58a91.59,91.59,0,0,1-23.45-4.28,64.63,64.63,0,0,1-10.93-4.75,44.62,44.62,0,0,1-9.57-7,26.14,26.14,0,0,1-6.5-9.8,19,19,0,0,1-.34-11.66,24.82,24.82,0,0,1,6-10.11,42.55,42.55,0,0,1,9.37-7.35,42.55,42.55,0,0,0-9.53,7.19A24.9,24.9,0,0,0,227.8,374a19.26,19.26,0,0,0,.27,11.87,26.61,26.61,0,0,0,6.54,10,44.7,44.7,0,0,0,9.71,7,64.44,64.44,0,0,0,11,4.71A84.39,84.39,0,0,0,267,410.43,97,97,0,0,0,278.89,411.58Z" style="fill:#fff"></path></g><g style="opacity:0.30000000000000004"><path d="M330.59,386.5a15,15,0,0,0,2-5.55,13.37,13.37,0,0,0-.56-5.89,17.82,17.82,0,0,0-2.84-5.23,26.27,26.27,0,0,0-4.14-4.29,45.79,45.79,0,0,0-10.12-6.23,64.92,64.92,0,0,0-11.22-3.93A76.25,76.25,0,0,0,292,353.33a88.91,88.91,0,0,0-11.88-.42,81.74,81.74,0,0,0-23.41,4,57.23,57.23,0,0,0-10.86,5,33.4,33.4,0,0,0-9.16,7.72,18.48,18.48,0,0,0-3,5.29,13.69,13.69,0,0,0,0,9.06,16.25,16.25,0,0,0,1.27,2.78,22,22,0,0,0,3.73,4.74,39.05,39.05,0,0,0,9.79,6.8,60.57,60.57,0,0,0,11.08,4.28,76.85,76.85,0,0,0,11.63,2.27,86.52,86.52,0,0,0,11.82.61,85.91,85.91,0,0,1-23.28-3.47,61.55,61.55,0,0,1-10.89-4.39,38.69,38.69,0,0,1-9.47-6.78,21.44,21.44,0,0,1-3.49-4.58,14.23,14.23,0,0,1-1.8-5.37,12.61,12.61,0,0,1,.64-5.58,17.29,17.29,0,0,1,2.82-5,32.48,32.48,0,0,1,8.87-7.4,56.64,56.64,0,0,1,10.65-4.8,80.45,80.45,0,0,1,23.05-4,88.45,88.45,0,0,1,23.33,2.26A64,64,0,0,1,314.57,360a45.39,45.39,0,0,1,10.06,6,25.67,25.67,0,0,1,4.16,4.11,17.46,17.46,0,0,1,2.9,5,13.29,13.29,0,0,1,.69,5.77A15,15,0,0,1,330.59,386.5Z" style="fill:#fff"></path></g><path d="M243.73,409.88a8.76,8.76,0,0,0-3.94-6.89,2.78,2.78,0,0,0-2.79-.29h0l-19.06,10.88h0a2.79,2.79,0,0,0-1.16,2.55,8.77,8.77,0,0,0,3.94,6.89,2.78,2.78,0,0,0,2.8.29h0l19.06-10.88h0A2.79,2.79,0,0,0,243.73,409.88Z" style="fill:#37474f"></path><path d="M242.55,412.44a2.79,2.79,0,0,0,1.18-2.56,7.69,7.69,0,0,0-.67-3l-24.58,14a7.57,7.57,0,0,0,2.21,2.07,2.78,2.78,0,0,0,2.8.29l19.06-10.88Z" style="fill:#263238"></path><path d="M223.91,423a11.44,11.44,0,0,0-5.13-9,3.66,3.66,0,0,0-3.59-.4h0l-.06,0h0l-49.51,25.94,9.43,16.67,47.32-29.94A3.63,3.63,0,0,0,223.91,423Z" style="fill:#BA68C8"></path><path d="M175.05,456.25l47.32-29.94a3.63,3.63,0,0,0,1.54-3.34,10.86,10.86,0,0,0-1.72-5.44l-52,30.13Z" style="opacity:0.1"></path><path d="M170.28,455.75A15,15,0,0,1,163.56,444c0-4.32,3.06-6.06,6.79-3.88a14.94,14.94,0,0,1,6.72,11.75C177.05,456.18,174,457.92,170.28,455.75Z" style="fill:#BA68C8"></path><g style="opacity:0.2"><path d="M170.28,455.75A15,15,0,0,1,163.56,444c0-4.32,3.06-6.06,6.79-3.88a14.94,14.94,0,0,1,6.72,11.75C177.05,456.18,174,457.92,170.28,455.75Z"></path></g></g></g><g id="freepik--Plants--inject-21"><g id="freepik--plants--inject-21"><path d="M445.77,337.51l13,7.5c-.17-4.64-.57-11.53.07-16.17,3.92-28.37,15-37.73,20.23-51.54,5.53-14.54-1.22-19.22-10-16.61-7.82,2.34-19.13,13.91-22.7,35.08C444,309.86,444.41,325.16,445.77,337.51Z" style="fill:#BA68C8"></path><path d="M445.77,337.51l13,7.5c-.17-4.64-.57-11.53.07-16.17,3.92-28.37,15-37.73,20.23-51.54,5.53-14.54-1.22-19.22-10-16.61-7.82,2.34-19.13,13.91-22.7,35.08C444,309.86,444.41,325.16,445.77,337.51Z" style="fill:#fff;opacity:0.65"></path><path d="M452.65,341.49l1.3.74c-4.64-33.08,6.67-61.77,17.83-73.62a.56.56,0,0,0,0-.8.59.59,0,0,0-.81,0C459.8,279.69,448.49,308.57,452.65,341.49Z" style="fill:#fff"></path><path d="M455.1,342.9l7.31,4.22h0c3.88-11.44,7.87-16,12.82-23.54,4.51-6.84,9.76-11.08,12.55-15.89,2.47-4.27,4.32-9.62.65-12.86-5.84-5.15-13.46.3-18.7,6.2C465.21,306.13,456.11,319.69,455.1,342.9Z" style="fill:#BA68C8"></path><path d="M455.1,342.9l7.31,4.22h0c3.88-11.44,7.87-16,12.82-23.54,4.51-6.84,9.76-11.08,12.55-15.89,2.47-4.27,4.32-9.62.65-12.86-5.84-5.15-13.46.3-18.7,6.2C465.21,306.13,456.11,319.69,455.1,342.9Z" style="fill:#fff;opacity:0.30000000000000004"></path><path d="M458.1,344.63l1.07.62c3.06-18.09,15.35-39,23-44a.58.58,0,0,0,.17-.81.57.57,0,0,0-.8-.17C473.62,305.44,461.36,326.26,458.1,344.63Z" style="fill:#fff"></path></g></g><g id="freepik--Character--inject-21"><g id="freepik--character--inject-21"><g id="freepik--Bottom--inject-21"><path d="M447.2,297.31c.16,3,.27,6.16.33,9.16,1,16.86-.34,25.13.51,35.93.16,2,1.76,15.74,1.39,20-.56,6.38-9.3,6.28-10.14,2.57s-2.85-19.9-3.06-21.55c-.68-6.92-4.61-16.74-7.29-30.55-1.09-4.7-2.39-10.12-3.71-15.55Z" style="fill:#ffa8a7"></path><path d="M388.32,340.34c1.82-1.8,2.93-3.43,2.63-7.71-.06-.8-1.27-16.92-2.57-35.32h22.68c-.71,9.05-7.11,37.34-7.18,39.67a4.14,4.14,0,0,0-.13.73c-.06,4.07-5.06,6.22-9,8.89a73.21,73.21,0,0,1-10.56,6.23c-2.83,1.28-8.56,1.34-9.25-.34C379.73,349.2,384.53,344.11,388.32,340.34Z" style="fill:#ffa8a7"></path><path d="M366.88,356.79a3.3,3.3,0,0,0,.66,3.53c1.51,1.22,5.94,3.25,11.83,2.61s9.1-2.3,11.47-4.1,5.71-4.34,8.37-4.85c2.48-.48,5.18-1.49,6-2.19s.72-3.84.72-3.84Z" style="fill:#263238"></path><path d="M404,335.83s.45,0,.59.74c.17.87.34,3.39.71,4.82a23.53,23.53,0,0,1,.49,7.64c-.34,1.6-4.38,2.68-7,3.56a33,33,0,0,0-8.4,4.8A25.6,25.6,0,0,1,378,361.54c-5.85,0-9.63-1.49-10.77-3.44-1.42-2.43-1-5.32,5.78-8.14,1.28-.53,5.78-2.93,7.32-3.81a35.37,35.37,0,0,0,4.61-3.1,26.33,26.33,0,0,0,2.07-1.86,8.58,8.58,0,0,0,1.73-2c.08-.16.14-.35.21-.52a8.22,8.22,0,0,0,.45-1.46,3.39,3.39,0,0,1,.39-1.24c.34-.52.86-.34,1.41-.28a20.26,20.26,0,0,1,3.71.71,9.92,9.92,0,0,1,3.17,1.45,3.7,3.7,0,0,1,1,2.86c0,.36,0,.73,0,1.09,0,.16-.07.44.16.37s.48-.6.57-.78c.19-.41.32-.84.52-1.24a6.58,6.58,0,0,1,.86-1.31,6.72,6.72,0,0,1,1.07-1,10.09,10.09,0,0,0,1.16-.68A2.35,2.35,0,0,0,404,335.83Z" style="fill:#37474f"></path><path d="M371.87,350.43c8.47.62,11.79,7,12.12,10a21.5,21.5,0,0,1-6,1.11c-5.85,0-9.87-1.49-11-3.44C365.6,355.81,365.84,352.48,371.87,350.43Z" style="fill:#fafafa"></path><path d="M385.28,352.14a.45.45,0,0,0,.27-.08.37.37,0,0,0,.06-.54c-1.16-1.35-5.26-4.66-8.34-4.38a.39.39,0,0,0-.37.42.4.4,0,0,0,.45.34c2.88-.25,6.69,3,7.61,4.1A.43.43,0,0,0,385.28,352.14Z" style="fill:#f0f0f0"></path><path d="M389,350.21a.42.42,0,0,0,.26-.08.36.36,0,0,0,.06-.54c-1.16-1.35-5.26-4.67-8.34-4.38a.39.39,0,0,0-.37.42.4.4,0,0,0,.45.34c2.88-.25,6.69,3,7.62,4.1A.42.42,0,0,0,389,350.21Z" style="fill:#f0f0f0"></path><path d="M392.36,348a.5.5,0,0,0,.27-.08.38.38,0,0,0,.06-.54c-1.16-1.35-5.27-4.67-8.34-4.38a.39.39,0,0,0-.37.41.4.4,0,0,0,.45.35c2.88-.26,6.69,3,7.61,4.1A.43.43,0,0,0,392.36,348Z" style="fill:#f0f0f0"></path><path d="M395.7,345.79a.5.5,0,0,0,.26-.08.37.37,0,0,0,.07-.54c-1.6-1.91-6-4.71-9-4.43a.39.39,0,0,0-.37.42.39.39,0,0,0,.45.34c2.77-.25,6.89,2.44,8.31,4.14A.48.48,0,0,0,395.7,345.79Z" style="fill:#f0f0f0"></path><path d="M436.55,367.85c.23,3.7.85,6.15,2.27,8.32s4.09,2.85,6.8,2.21,6.19-2.33,7-5.52,1.23-5.37.62-8.8Z" style="fill:#263238"></path><path d="M447.94,341.08c1.12.08,1.45,5,2.09,10,.69,5.32,2.41,7.53,3,11.89.7,5-.19,7.23-2.08,10.24s-8.59,6-11.88,1.66c-2.69-3.52-2.8-7.43-2.56-12.41a102.79,102.79,0,0,0-.36-12.63c-.22-3.74-1.11-7.51-.14-7.92.07.54.15,1.24.23,1.78a7.93,7.93,0,0,0,.36,2c.11.28.36.57.46.12a2.64,2.64,0,0,0,0-.93c-.16-1.38.59-1.49,1-1.6.88-.23,4.34-.62,5.18-.67s3.8-.18,4.18.27a2.93,2.93,0,0,1,.38,1.45c.09.75.28,1.3.3,1.06a22.5,22.5,0,0,0-.07-2.27c0-.33-.07-.77-.08-1.09S448,341.4,447.94,341.08Z" style="fill:#37474f"></path><path d="M453.37,365.89a11.74,11.74,0,0,1-2.09,7.58c-1.89,3-9.12,6-12.42,1.67-1.64-2.15-2.08-4.7-2.31-7.29C438.53,364.52,450.25,363.05,453.37,365.89Z" style="fill:#fafafa"></path><path d="M439,362.42a.31.31,0,0,0,.13,0,20.38,20.38,0,0,1,10.24-.92.42.42,0,0,0,.5-.29.39.39,0,0,0-.31-.46,20.87,20.87,0,0,0-10.78,1,.37.37,0,0,0-.2.51A.42.42,0,0,0,439,362.42Z" style="fill:#f0f0f0"></path><path d="M449.11,357.75a.43.43,0,0,0,.36-.26.38.38,0,0,0-.26-.48c-5-1.57-10.56.78-10.77.88a.37.37,0,0,0-.18.52.44.44,0,0,0,.56.16c.05,0,5.46-2.3,10.12-.84A.52.52,0,0,0,449.11,357.75Z" style="fill:#f0f0f0"></path><path d="M448.94,354.24a.42.42,0,0,0,.35-.25.38.38,0,0,0-.25-.49,15.73,15.73,0,0,0-11,.86.36.36,0,0,0-.14.52.43.43,0,0,0,.57.13c.05,0,5.14-2.49,10.27-.79A.37.37,0,0,0,448.94,354.24Z" style="fill:#f0f0f0"></path><path d="M448.66,350.79a.42.42,0,0,0,.35-.25.37.37,0,0,0-.24-.49c-5.16-1.79-10.84.85-11,1a.37.37,0,0,0-.15.53.42.42,0,0,0,.56.14c.05,0,5.56-2.57,10.35-.91A.55.55,0,0,0,448.66,350.79Z" style="fill:#ebebeb"></path><path d="M435.91,202.12c5,8.47,8.75,15.39,9.25,40.56s.45,26.87.56,29.91.74,6.09,2.42,21,.36,32.1.36,32.1-1.87,3.31-8.05,3.82c-5.71.47-8.48-1.73-8.48-1.73s-7.83-29.12-10-38.13-7.2-30.89-7.2-30.89l-3,19.47s1.74,8.25,0,21.37a172.87,172.87,0,0,1-4,21.2,45.11,45.11,0,0,1-10.24,1.32,18.62,18.62,0,0,1-8.17-1.92s-3.71-33.61-3.71-48.47-2-47.48,3-69.49Z" style="fill:#37474f"></path><path d="M414.78,258.8l-5.09-28.59s-10.75-.71-16.72-6.48c2.42,6.13,11.24,10.43,15.12,11.29l4.55,23.46-.88,19.79Z" style="fill:#263238"></path><path d="M443,275.7c-1.82-6.69-2.64-6.54-2.79-25.14-.17-20.06-2.72-33.11-8.8-45l-.8.35a74.3,74.3,0,0,1,7.24,23.41,7.38,7.38,0,0,1-5.65-.43c-2.31-1.35-4-4.5-4.93-9.37-2.33-11.7-5-15.49-5.07-15.65l-.74.45s2.65,3.86,4.93,15.35c1,5.18,2.77,8.43,5.34,9.92a6.92,6.92,0,0,0,3.53.91,12,12,0,0,0,2.71-.35,154.14,154.14,0,0,1,1.34,20.44c.16,18.7,1,18.59,2.83,25.33.34,1.25.67,2.47,1,3.75,2,7.88,4.07,30.45,3,48.24a7.1,7.1,0,0,0,.93-.62c1-17.75-1.08-40-3-47.81C443.7,278.18,443.37,277,443,275.7Z" style="fill:#263238"></path><path d="M403.43,231.8c-.17,1.6-3.4,34.72-2.48,42.76.21,1.91.48,3.69.74,5.41a95,95,0,0,1,1.05,22.74c-.59,10-1.5,14.13-1.61,19.25l.9-.12c.11-5.15,1-9.21,1.6-19.09a95,95,0,0,0-1.06-22.89c-.25-1.72-.52-3.49-.74-5.39-.9-8,2.45-42.2,2.49-42.59Z" style="fill:#263238"></path></g><g id="freepik--Top--inject-21"><path d="M431.13,112.62c3.29.72,5.31,3.53,6,6.7a16.23,16.23,0,0,1,.25,5.06c-.27,2.19-1.17,4.39-.68,6.62a20.43,20.43,0,0,0,1.35,3.3,8.63,8.63,0,0,1,.51,5.74,5.53,5.53,0,0,1-4,3.92,7.54,7.54,0,0,0,.9-4.11c.06.86-1,2.17-1.49,2.77a7.72,7.72,0,0,1-2.59,2,12.6,12.6,0,0,1-7.26,1,5.2,5.2,0,0,1-3.18-1.18,10.76,10.76,0,0,1-2,1.41,7.19,7.19,0,0,1-6.47.13,2.86,2.86,0,0,0-.74-.27,2.52,2.52,0,0,0-1,.12,12.86,12.86,0,0,1-8.85-.87,9.48,9.48,0,0,1-5.12-7.06,6.27,6.27,0,0,0-.72,4.2,5.66,5.66,0,0,1-1.77-4.74,10.28,10.28,0,0,1,3-6.15c1-1,2.68-2.1,2.6-3.65s-1.36-3-2.21-4.21c-3.23-4.76-2.6-10.33.82-14.8,2.27-3,6.24-4.67,9.84-5.4C415.54,101.63,429.37,103.22,431.13,112.62Z" style="fill:#263238"></path><path d="M322.39,159.9a4.37,4.37,0,0,1,2.54-.49,28.61,28.61,0,0,1,4.11,1c2.09.48,5.47,1.28,7.56.61.42-.13,1.26-.54.53-.91a18,18,0,0,1-2.8-1.51,3.72,3.72,0,0,1-1.65-2.59,1.3,1.3,0,0,1,.22-.9c.28-.36.57-.26.9-.13a10.57,10.57,0,0,0,1.1.31c.77.18,1.53.37,2.29.57,4.45,1.17,9,2.7,12.34,6,.48.47,1.56,2,6.51,4.86,4.75,2.74,16.93,9.58,16.93,9.58s8.9-11.32,12-15.31c5.51-7.05,7.1-9,14.64-10.35l-2.24,23.56s-11.75,13.51-15.86,16.73c-5.64,4.42-7.17,4-11.73,1.28-6-3.54-8.36-5.77-13.1-9.79-5.76-4.89-7.8-6.54-9.69-7.92s-4.77-1.4-6.19-1.45a21.34,21.34,0,0,1-5.78-.81,19.67,19.67,0,0,1-4.76-1.79,6,6,0,0,1-2-1.39,19.36,19.36,0,0,0-.9-1.83c-.51-.62-1.31-1-1.74-1.65a7.5,7.5,0,0,1-.62-1.76c-.31-.95-1.06-1.34-1.91-1.77a3,3,0,0,1-1.13-.76C321.51,160.64,321.88,160.2,322.39,159.9Z" style="fill:#ffa8a7"></path><path d="M373,176.24c4.23,2.44,6,5.78,6.15,8.74,1.71-6.53-5.11-10.06-5.11-10.06Z" style="fill:#f28f8f"></path><path d="M339.5,162.16a14.09,14.09,0,0,0,6.32,4.54,5.94,5.94,0,0,1-4-.81A5.33,5.33,0,0,1,339.5,162.16Z" style="fill:#f28f8f"></path><path d="M399.22,150c-8.76,1.72-9.46,4.24-14.37,10.11s-12.08,15.37-12.08,15.37l-13.25-6.87s.71,2.3-1.82,5.93a11,11,0,0,1-6,4.4s4.95,4.43,12.31,10.25S374.32,196,378.06,194s20.78-18.64,20.78-18.64Z" style="fill:#37474f"></path><path d="M372.77,175.52a12,12,0,0,1,5.77,8.8,10.82,10.82,0,0,0-4.68-10.25Z" style="fill:#263238"></path><path id="freepik--Chest--inject-21" d="M441.6,214c2.79-2.27-1.68-12.26-3.21-23.68-.48-3.52,1.78-12.26,1.78-12.26s-6.53-9.85-4.42-27l-10.14-1.9-16.5-.24-9.49,1.59A61.44,61.44,0,0,0,390.84,161c-4.6,6.67-4.18,15.25.78,20.56.08,1-1.27,8.78-1.72,12.9-.63,5.71-5.44,18.46-3.18,19.58C396.41,222.22,428.46,222.62,441.6,214Z" style="fill:#BA68C8"></path><g id="freepik--Head--inject-21"><g id="freepik--head--inject-21"><g id="freepik--head--inject-21"><path d="M427.64,136.92a5.44,5.44,0,0,0,4.87-1.82c2.57-2.77,2.81-5.59,1.61-7.47-1-1.54-3.4-2.53-5.1-1.49s-1.87,2-2.56,3.29-2.44.28-1.85-4.79c-3.52-1.63-2.95-7.43-4.86-9.8-3-3.7-7.89-2.74-9.48-1.87a6.49,6.49,0,0,0-6.69-.43c-2.37,1.25-3.95,3.86-4.79,12.87-.86,9.18-.05,13.9,2.7,16.39a11.31,11.31,0,0,0,7.74,2.92l-.12,4.27s-9.4,8.92,2.72,8a19.09,19.09,0,0,0,13.73-7.63l.08-13.93S425.83,136.58,427.64,136.92Z" style="fill:#ffa8a7"></path><path d="M407.88,135.51a2.7,2.7,0,0,0,3.37,1.75,2.65,2.65,0,0,0,1.8-3.31Z" style="fill:#b16668"></path><path d="M413.15,134.81a2.66,2.66,0,0,1-1.9,2.45,2.6,2.6,0,0,1-.95.11A2.72,2.72,0,0,1,413.15,134.81Z" style="fill:#f28f8f"></path><path d="M414.37,121.56l3.35,1.92a1.87,1.87,0,0,0-.68-2.61A2,2,0,0,0,414.37,121.56Z" style="fill:#263238"></path><path d="M400.77,122.21l3.54-1.56a1.89,1.89,0,0,0-2.51-1A2,2,0,0,0,400.77,122.21Z" style="fill:#263238"></path><path d="M416.18,125.76a1.51,1.51,0,1,1-1.51-1.5A1.5,1.5,0,0,1,416.18,125.76Z" style="fill:#263238"></path><path d="M404.61,125a1.51,1.51,0,1,1-1.51-1.51A1.51,1.51,0,0,1,404.61,125Z" style="fill:#263238"></path><polygon points="403.73 129.63 408.22 131.54 409.73 122.04 403.73 129.63" style="fill:#f28f8f"></polygon></g></g><path d="M409.23,144.72c4.74-.17,11.68-1.83,13.63-7.28-.81,5.9-5.15,7.59-7.82,8.32a26.08,26.08,0,0,1-5.86.93Z" style="fill:#f28f8f"></path></g><path d="M409.14,147.79l0,1.2a51.58,51.58,0,0,0-11.65,13.17c-4.95,8.16-4.45,18.18-4.7,28.7s-.48,33-.48,33-4.56-.94-6.95-4.52c0-5.86,2.84-27.08,3.46-32.1s-1.07-8.31-1.89-12.94-1-13.12,12.32-24.29Z" style="fill:#263238"></path><path d="M425.56,148.09s-4.5,10.06-4.65,20.31,4.06,60,4.06,60,14.48-.61,21.66-3.92c-1.64-8.08-5.19-23.74-6.51-28.83s-1.6-6.68-.38-12a43.66,43.66,0,0,1,2.1-7.26l-5.63-25.85Z" style="fill:#263238"></path><g id="freepik--Arm--inject-21"><path d="M407.32,172.82c-3-2-4.52-2.77-5.9-3.09s-6.25-2-8.1-2.42c-1.17-.23-1.56,1.6,0,2.79,1.18.91,4.2,2,5.53,2.68s4,3.57,4,3.57Z" style="fill:#f28f8f"></path><path d="M448.42,159.9c-3.16-5.93-6.34-7.46-12.67-8.77-4,7.26-1,19.52-1,19.52l3.84,14.69s-17.23-1.67-19.26-2.82-7.58-6.52-9.44-8.11c-2.52-2.18-3.71-1.82-4.93-1.58-4,.77-4.87,1.14-5.7,1.71a1.77,1.77,0,0,0-.71,1.58c-1.07.18-2.67.21-2.8,1.95a4.92,4.92,0,0,0,0,1.38,1.21,1.21,0,0,0-.68.43c-.84,1.05.84,4.48,1.85,5.3a3.55,3.55,0,0,0,2.94.37c1.08-.19.53-1.25.53-1.25l1.52,0c3.38,2.14,3.75,6.66,8.12,7.46a29.54,29.54,0,0,1,5.34.78c9.46,2.66,25.16,11.3,33.5,11.63,8.15.33,7.72-3.91,7.63-8.79C456.39,191,451.58,165.82,448.42,159.9Z" style="fill:#ffa8a7"></path><path d="M438.14,183.69l.42,1.65c3.74.77,8.28,5.37,9.26,7.31C447,189.54,444.72,185.11,438.14,183.69Z" style="fill:#f28f8f"></path><path d="M398.52,176.12l4.74-1.17-4.67.51A1.68,1.68,0,0,0,398.52,176.12Z" style="fill:#f28f8f"></path><path d="M395.72,179.45l5.47-.94-5.51.32A2.69,2.69,0,0,0,395.72,179.45Z" style="fill:#f28f8f"></path><path d="M400.77,183.49a2.1,2.1,0,0,1-.73-1,17.21,17.21,0,0,1-1.92,0,5.11,5.11,0,0,1-.75-.18,2.09,2.09,0,0,1-.82-.46,1.76,1.76,0,0,0,.77.6,3.53,3.53,0,0,0,.84.25l.34.65a1.13,1.13,0,0,0-.56.24,1.48,1.48,0,0,0-.45.73,1.8,1.8,0,0,1,.54-.62,1.12,1.12,0,0,1,.73-.16,2.35,2.35,0,0,1,1.6.81l1.52,0A12.25,12.25,0,0,1,400.77,183.49Z" style="fill:#f28f8f"></path><path d="M436.21,150.58c6.23,1.42,11.26,3.53,14.06,11.83a158.91,158.91,0,0,1,6,26.82c1.25,8.64,1.08,12.72-1.66,14.37s-6.93,1.66-13.36-.38a152.7,152.7,0,0,1-15.66-6.46,14.59,14.59,0,0,0,2.87-7.15c.64-4.59-.44-5.73-.44-5.73L438,185s-2.28-8.53-3.79-14.42S433.28,153.08,436.21,150.58Z" style="fill:#37474f"></path><path d="M438,185c4.16.51,9,2.66,10.76,6.21-1.27-5.88-8.29-7.85-11.27-8.13Z" style="fill:#263238"></path></g></g></g></g><g id="freepik--speech-bubble--inject-21"><g id="freepik--speech-bubble--inject-21"><g id="freepik--speech-bubble--inject-21"><path d="M363.56,135.86l-2.93-5.51,2.36-6.8v-4.17l-7.21,4.17v4.16l3.1,5.38a.4.4,0,0,0,.21.18h0Z" style="fill:#BA68C8"></path><path d="M363.56,135.86l-2.93-5.51,2.36-6.8v-4.17l-7.21,4.17v4.16l3.1,5.38a.4.4,0,0,0,.21.18h0Z" style="opacity:0.2"></path><path d="M380.8,86.26a4.78,4.78,0,0,0-2.17-3.75l-1.76-1a4.77,4.77,0,0,0-4.32,0l-27,15.63a4.78,4.78,0,0,0-2.17,3.75v29.72a4.78,4.78,0,0,0,2.17,3.75l1.76,1a4.79,4.79,0,0,0,4.33,0l8.69-5,3.09,5.36a.47.47,0,0,0,.84-.08l3.27-9.45,11.12-6.44A4.78,4.78,0,0,0,380.8,116Z" style="fill:#BA68C8"></path><path d="M343.37,130.59a4.77,4.77,0,0,0,2.16,3.75l1.76,1a4.87,4.87,0,0,0,4,.17c-1,.39-1.8-.19-1.8-1.42V104.38a4.45,4.45,0,0,1,.64-2.13L344,98.73a4.47,4.47,0,0,0-.63,2.14Z" style="opacity:0.2"></path><path d="M380.73,85.64c-.26-.92-1.09-1.21-2.09-.63l-27,15.63a4.25,4.25,0,0,0-1.53,1.61L344,98.74a4.33,4.33,0,0,1,1.52-1.62l27-15.63a4.85,4.85,0,0,1,4.33,0l1.77,1A4.82,4.82,0,0,1,380.73,85.64Z" style="fill:#fff;opacity:0.30000000000000004"></path></g><path id="freepik--Check--inject-21" d="M373.2,94.91a2.36,2.36,0,0,0-3.09,1.26l-8.9,21.17-2.12-2.06a2.35,2.35,0,0,0-3.28,3.38l4.6,4.46a2.33,2.33,0,0,0,1.64.67,2.59,2.59,0,0,0,.47-.05,2.38,2.38,0,0,0,1.7-1.39L374.45,98A2.37,2.37,0,0,0,373.2,94.91Z" style="fill:#fff"></path></g></g></svg>
